<svg xmlns="http://www.w3.org/2000/svg" viewBox="0 0 295.63859 267.87996"><defs><style>.cls-1{fill:none;stroke:#000;stroke-linecap:round;stroke-miterlimit:10;stroke-width:4px;}</style></defs><g id="Layer_2" data-name="Layer 2"><g id="Layer_1-2" data-name="Layer 1"><polygon class="cls-1" points="183.819 230 183.699 226.76 183.219 223.64 182.499 220.4 181.539 217.4 180.219 214.4 178.779 211.64 176.979 208.88 174.939 206.36 172.659 204.08 170.259 201.92 167.619 200 164.859 198.44 161.979 197 158.979 195.92 155.859 194.96 152.619 194.48 149.379 194.12 146.259 194.12 143.019 194.48 139.779 194.96 136.659 195.92 133.659 197 130.779 198.44 128.019 200 125.379 201.92 122.979 204.08 120.699 206.36 118.659 208.88 116.859 211.64 115.419 214.4 114.099 217.4 113.139 220.4 112.419 223.64 111.939 226.76 111.819 230 111.939 233.24 112.419 236.36 113.139 239.6 114.099 242.6 115.419 245.6 116.859 248.36 118.659 251.12 120.699 253.64 122.979 255.92 125.379 258.08 128.019 260 130.779 261.56 133.659 263 136.659 264.08 139.779 265.04 143.019 265.52 146.259 265.88 149.379 265.88 152.619 265.52 155.859 265.04 158.979 264.08 161.979 263 164.859 261.56 167.619 260 170.259 258.08 172.659 255.92 174.939 253.64 176.979 251.12 178.779 248.36 180.219 245.6 181.539 242.6 182.499 239.6 183.219 236.36 183.699 233.24 183.819 230"/><polygon class="cls-1" points="176.619 230 176.499 227.24 176.019 224.36 175.419 221.72 174.459 219.08 173.259 216.44 171.819 214.04 170.139 211.76 168.219 209.72 166.059 207.8 163.779 206.12 161.379 204.68 158.859 203.48 156.219 202.52 153.459 201.92 150.699 201.44 147.819 201.32 144.939 201.44 142.179 201.92 139.419 202.52 136.779 203.48 134.259 204.68 131.859 206.12 129.579 207.8 127.419 209.72 125.499 211.76 123.819 214.04 122.379 216.44 121.179 219.08 120.219 221.72 119.619 224.36 119.139 227.24 119.019 230 119.139 232.76 119.619 235.64 120.219 238.28 121.179 240.92 122.379 243.56 123.819 245.96 125.499 248.24 127.419 250.28 129.579 252.2 131.859 253.88 134.259 255.32 136.779 256.52 139.419 257.48 142.179 258.08 144.939 258.56 147.819 258.68 150.699 258.56 153.459 258.08 156.219 257.48 158.859 256.52 161.379 255.32 163.779 253.88 166.059 252.2 168.219 250.28 170.139 248.24 171.819 245.96 173.259 243.56 174.459 240.92 175.419 238.28 176.019 235.64 176.499 232.76 176.619 230"/><path class="cls-1" d="M182.8593,238.16l8.16-35.04m-78.24,18.72,9.12-31.56"/><polyline class="cls-1" points="190.899 203 190.779 200.24 190.419 197.48 189.819 194.72 189.099 192.08 188.019 189.44 186.819 186.92"/><polyline class="cls-1" points="176.739 174.8 174.099 173 171.339 171.44 168.579 170.12 165.579 169.04 162.459 168.32 159.459 167.72 156.219 167.48 153.099 167.48 149.979 167.84 146.859 168.44 143.859 169.28 140.859 170.36 137.979 171.68 135.339 173.24 132.699 175.16 130.299 177.2"/><path class="cls-1" d="M3.81931,48.8h288m-288,6.46119h288"/><polyline class="cls-1" points="111.819 67.48 115.539 69.4 119.259 71.2 123.219 72.76 127.179 74.08 131.259 75.16 135.339 76 139.419 76.6 143.619 76.96 147.819 77.08 152.019 76.96 156.219 76.6 160.299 76 164.379 75.16 168.459 74.08 172.419 72.76 176.379 71.2 180.099 69.4 183.819 67.48"/><polyline class="cls-1" points="104.619 79.96 108.579 82.12 112.659 84.04 116.859 85.72 121.179 87.28 125.499 88.6 129.819 89.56 134.259 90.4 138.819 91 143.259 91.36 147.819 91.48 152.379 91.36 156.819 91 161.379 90.4 165.819 89.56 170.139 88.6 174.459 87.28 178.779 85.72 182.979 84.04 187.059 82.12 191.019 79.96"/><polyline class="cls-1" points="55.419 155.12 59.619 159.08 63.939 162.8 68.499 166.4 73.179 169.64 77.979 172.88 82.899 175.76 87.939 178.52 93.219 181.04 98.499 183.2 103.899 185.24 109.299 187.04 114.819 188.6 120.459 189.92 126.099 191"/><polyline class="cls-1" points="182.379 188.24 187.779 186.68 193.059 184.76 198.339 182.84 203.499 180.56 208.539 178.04 213.459 175.4 218.259 172.52 222.939 169.4 227.499 166.04 231.939 162.56 236.139 158.96 240.219 155.12"/><polyline class="cls-1" points="65.379 144.8 69.459 148.64 73.659 152.24 78.099 155.6 82.779 158.84 87.459 161.84 92.379 164.6 97.299 167.12 102.459 169.28 107.619 171.32 113.019 173.12 118.299 174.68 123.819 175.88 129.339 176.84 134.859 177.56"/><polyline class="cls-1" points="170.139 176.6 175.779 175.28 181.299 173.72 186.699 171.92 192.099 169.88 197.259 167.6 202.419 164.96 207.459 162.2 212.259 159.2 217.059 155.84 221.619 152.36 225.939 148.76 230.139 144.8"/><polyline class="cls-1" points="81.099 119.6 86.139 122.6 91.299 125.36 96.579 127.88 101.979 130.04 107.499 132.08 113.139 133.76 118.779 135.32 124.539 136.52 130.299 137.48 136.059 138.08 141.939 138.56 147.819 138.68 153.699 138.56 159.579 138.08 165.339 137.48 171.099 136.52 176.859 135.32 182.499 133.76 188.139 132.08 193.659 130.04 199.059 127.88 204.339 125.36 209.499 122.6 214.539 119.6"/><polyline class="cls-1" points="88.659 107.36 93.099 110 97.779 112.4 102.459 114.68 107.259 116.72 112.059 118.4 117.099 119.96 122.139 121.28 127.179 122.36 132.339 123.2 137.499 123.8 142.659 124.16 147.819 124.28 152.979 124.16 158.139 123.8 163.299 123.2 168.459 122.36 173.499 121.28 178.539 119.96 183.579 118.4 188.379 116.72 193.179 114.68 197.859 112.4 202.539 110 206.979 107.36"/><polygon class="cls-1" points="111.819 2 147.819 38 183.819 2 111.819 2"/><polyline class="cls-1" points="191.019 79.96 192.219 79.12 193.179 78.16 193.899 76.96 194.379 75.64 194.619 74.32 194.499 72.88 194.259 71.56 193.659 70.36 192.819 69.16 191.859 68.2 190.659 67.48 189.339 67 187.899 66.76 186.459 66.88 185.139 67.12 183.819 67.72"/><polyline class="cls-1" points="214.659 119.6 215.739 118.76 216.699 117.68 217.419 116.48 217.779 115.16 218.019 113.84 217.899 112.4 217.539 111.08 216.939 109.88 216.099 108.8 215.019 107.84 213.819 107.12 212.499 106.76 211.059 106.52 209.619 106.64 208.299 107 206.979 107.6"/><polyline class="cls-1" points="240.339 155 241.299 153.92 241.899 152.72 242.379 151.4 242.499 150.08 242.379 148.64 242.019 147.32 241.299 146.12 240.459 145.04 239.379 144.08 238.179 143.48 236.739 143 235.419 142.88 233.979 143 232.659 143.36 231.339 144.08 230.259 144.92"/><polyline class="cls-1" points="65.379 144.92 64.299 144.08 62.979 143.36 61.659 143 60.219 142.88 58.899 143 57.459 143.48 56.259 144.08 55.179 145.04 54.339 146.12 53.619 147.32 53.259 148.64 53.139 150.08 53.259 151.4 53.739 152.72 54.339 153.92 55.299 155"/><polyline class="cls-1" points="88.659 107.6 87.339 107 86.019 106.64 84.579 106.52 83.139 106.76 81.819 107.12 80.619 107.84 79.539 108.8 78.699 109.88 78.099 111.08 77.739 112.4 77.619 113.84 77.859 115.16 78.219 116.48 78.939 117.68 79.899 118.76 80.979 119.6"/><polyline class="cls-1" points="111.819 67.72 110.499 67.12 109.179 66.88 107.739 66.76 106.299 67 104.979 67.48 103.779 68.2 102.819 69.16 101.979 70.36 101.379 71.56 101.139 72.88 101.019 74.32 101.259 75.64 101.739 76.96 102.459 78.16 103.419 79.12 104.619 79.96"/><polyline class="cls-1" points="291.819 55.046 292.419 54.83 292.899 54.4 293.259 53.754 293.499 52.892 293.619 52.031 293.499 51.169 293.259 50.308 292.899 49.661 292.419 49.231 291.819 49.015"/><polyline class="cls-1" points="3.819 49.015 3.219 49.231 2.739 49.661 2.379 50.308 2.139 51.169 2.019 52.031 2.139 52.892 2.379 53.754 2.739 54.4 3.219 54.83 3.819 55.046"/><polyline class="cls-1" points="134.859 177.68 133.299 178.4 131.859 179.36 130.539 180.44 129.339 181.64 128.379 182.96 127.539 184.52 126.819 186.08 126.459 187.64 126.099 189.32 126.099 191"/><polyline class="cls-1" points="182.379 188.24 181.539 186.2 180.459 184.4 179.139 182.6 177.699 181.04 176.019 179.6 174.219 178.4 172.299 177.44 170.259 176.6"/></g></g></svg>