<svg xmlns="http://www.w3.org/2000/svg" viewBox="0 0 295.56173 267.87996"><defs><style>.cls-1,.cls-2{fill:none;stroke:#000;stroke-linecap:round;stroke-width:4px;}.cls-1{stroke-linejoin:bevel;}.cls-2{stroke-linejoin:round;}</style></defs><g id="Layer_2" data-name="Layer 2"><g id="Layer_1-2" data-name="Layer 1"><polygon class="cls-1" points="183.781 230 183.661 226.76 183.181 223.64 182.461 220.4 181.501 217.4 180.181 214.4 178.741 211.64 176.941 208.88 174.901 206.36 172.621 204.08 170.221 201.92 167.581 200 164.821 198.44 161.941 197 158.941 195.92 155.821 194.96 152.581 194.48 149.341 194.12 146.221 194.12 142.981 194.48 139.741 194.96 136.621 195.92 133.621 197 130.741 198.44 127.981 200 125.341 201.92 122.941 204.08 120.661 206.36 118.621 208.88 116.821 211.64 115.381 214.4 114.061 217.4 113.101 220.4 112.381 223.64 111.901 226.76 111.781 230 111.901 233.24 112.381 236.36 113.101 239.6 114.061 242.6 115.381 245.6 116.821 248.36 118.621 251.12 120.661 253.64 122.941 255.92 125.341 258.08 127.981 260 130.741 261.56 133.621 263 136.621 264.08 139.741 265.04 142.981 265.52 146.221 265.88 149.341 265.88 152.581 265.52 155.821 265.04 158.941 264.08 161.941 263 164.821 261.56 167.581 260 170.221 258.08 172.621 255.92 174.901 253.64 176.941 251.12 178.741 248.36 180.181 245.6 181.501 242.6 182.461 239.6 183.181 236.36 183.661 233.24 183.781 230"/><polygon class="cls-1" points="176.581 230 176.461 227.24 175.981 224.36 175.381 221.72 174.421 219.08 173.221 216.44 171.781 214.04 170.101 211.76 168.181 209.72 166.021 207.8 163.741 206.12 161.341 204.68 158.821 203.48 156.181 202.52 153.421 201.92 150.661 201.44 147.781 201.32 144.901 201.44 142.141 201.92 139.381 202.52 136.741 203.48 134.221 204.68 131.821 206.12 129.541 207.8 127.381 209.72 125.461 211.76 123.781 214.04 122.341 216.44 121.141 219.08 120.181 221.72 119.581 224.36 119.101 227.24 118.981 230 119.101 232.76 119.581 235.64 120.181 238.28 121.141 240.92 122.341 243.56 123.781 245.96 125.461 248.24 127.381 250.28 129.541 252.2 131.821 253.88 134.221 255.32 136.741 256.52 139.381 257.48 142.141 258.08 144.901 258.56 147.781 258.68 150.661 258.56 153.421 258.08 156.181 257.48 158.821 256.52 161.341 255.32 163.741 253.88 166.021 252.2 168.181 250.28 170.101 248.24 171.781 245.96 173.221 243.56 174.421 240.92 175.381 238.28 175.981 235.64 176.461 232.76 176.581 230"/><path class="cls-2" d="M182.82087,238.16l8.16-35.04m-78.24,18.72,9.12-31.56"/><polyline class="cls-1" points="190.861 203 190.741 200.24 190.381 197.48 189.781 194.72 189.061 192.08 187.981 189.44 186.781 186.92"/><polyline class="cls-1" points="176.701 174.8 174.061 173 171.301 171.44 168.541 170.12 165.541 169.04 162.421 168.32 159.421 167.72 156.181 167.48 153.061 167.48 149.941 167.84 146.821 168.44 143.821 169.28 140.821 170.36 137.941 171.68 135.301 173.24 132.661 175.16 130.261 177.2"/><path class="cls-2" d="M3.78088,48.8h288m-288,6.46119h288"/><polyline class="cls-1" points="111.781 67.48 115.501 69.4 119.221 71.2 123.181 72.76 127.141 74.08 131.221 75.16 135.301 76 139.381 76.6 143.581 76.96 147.781 77.08 151.981 76.96 156.181 76.6 160.261 76 164.341 75.16 168.421 74.08 172.381 72.76 176.341 71.2 180.061 69.4 183.781 67.48"/><polyline class="cls-1" points="104.581 79.96 108.541 82.12 112.621 84.04 116.821 85.72 121.141 87.28 125.461 88.6 129.781 89.56 134.221 90.4 138.781 91 143.221 91.36 147.781 91.48 152.341 91.36 156.781 91 161.341 90.4 165.781 89.56 170.101 88.6 174.421 87.28 178.741 85.72 182.941 84.04 187.021 82.12 190.981 79.96"/><polyline class="cls-1" points="55.381 155.12 59.581 159.08 63.901 162.8 68.461 166.4 73.141 169.64 77.941 172.88 82.861 175.76 87.901 178.52 93.181 181.04 98.461 183.2 103.861 185.24 109.261 187.04 114.781 188.6 120.421 189.92 126.061 191"/><polyline class="cls-1" points="182.341 188.24 187.741 186.68 193.021 184.76 198.301 182.84 203.461 180.56 208.501 178.04 213.421 175.4 218.221 172.52 222.901 169.4 227.461 166.04 231.901 162.56 236.101 158.96 240.181 155.12"/><polyline class="cls-1" points="65.341 144.8 69.421 148.64 73.621 152.24 78.061 155.6 82.741 158.84 87.421 161.84 92.341 164.6 97.261 167.12 102.421 169.28 107.581 171.32 112.981 173.12 118.261 174.68 123.781 175.88 129.301 176.84 134.821 177.56"/><polyline class="cls-1" points="170.101 176.6 175.741 175.28 181.261 173.72 186.661 171.92 192.061 169.88 197.221 167.6 202.381 164.96 207.421 162.2 212.221 159.2 217.021 155.84 221.581 152.36 225.901 148.76 230.101 144.8"/><polyline class="cls-1" points="81.061 119.6 86.101 122.6 91.261 125.36 96.541 127.88 101.941 130.04 107.461 132.08 113.101 133.76 118.741 135.32 124.501 136.52 130.261 137.48 136.021 138.08 141.901 138.56 147.781 138.68 153.661 138.56 159.541 138.08 165.301 137.48 171.061 136.52 176.821 135.32 182.461 133.76 188.101 132.08 193.621 130.04 199.021 127.88 204.301 125.36 209.461 122.6 214.501 119.6"/><polyline class="cls-1" points="88.621 107.36 93.061 110 97.741 112.4 102.421 114.68 107.221 116.72 112.021 118.4 117.061 119.96 122.101 121.28 127.141 122.36 132.301 123.2 137.461 123.8 142.621 124.16 147.781 124.28 152.941 124.16 158.101 123.8 163.261 123.2 168.421 122.36 173.461 121.28 178.501 119.96 183.541 118.4 188.341 116.72 193.141 114.68 197.821 112.4 202.501 110 206.941 107.36"/><polygon class="cls-2" points="111.781 2 147.781 38 183.781 2 111.781 2"/><polyline class="cls-1" points="190.981 79.96 192.181 79.12 193.141 78.16 193.861 76.96 194.341 75.64 194.581 74.32 194.461 72.88 194.221 71.56 193.621 70.36 192.781 69.16 191.821 68.2 190.621 67.48 189.301 67 187.861 66.76 186.421 66.88 185.101 67.12 183.781 67.72"/><polyline class="cls-1" points="214.621 119.6 215.701 118.76 216.661 117.68 217.381 116.48 217.741 115.16 217.981 113.84 217.861 112.4 217.501 111.08 216.901 109.88 216.061 108.8 214.981 107.84 213.781 107.12 212.461 106.76 211.021 106.52 209.581 106.64 208.261 107 206.941 107.6"/><polyline class="cls-1" points="240.301 155 241.261 153.92 241.861 152.72 242.341 151.4 242.461 150.08 242.341 148.64 241.981 147.32 241.261 146.12 240.421 145.04 239.341 144.08 238.141 143.48 236.701 143 235.381 142.88 233.941 143 232.621 143.36 231.301 144.08 230.221 144.92"/><polyline class="cls-1" points="65.341 144.92 64.261 144.08 62.941 143.36 61.621 143 60.181 142.88 58.861 143 57.421 143.48 56.221 144.08 55.141 145.04 54.301 146.12 53.581 147.32 53.221 148.64 53.101 150.08 53.221 151.4 53.701 152.72 54.301 153.92 55.261 155"/><polyline class="cls-1" points="88.621 107.6 87.301 107 85.981 106.64 84.541 106.52 83.101 106.76 81.781 107.12 80.581 107.84 79.501 108.8 78.661 109.88 78.061 111.08 77.701 112.4 77.581 113.84 77.821 115.16 78.181 116.48 78.901 117.68 79.861 118.76 80.941 119.6"/><polyline class="cls-1" points="111.781 67.72 110.461 67.12 109.141 66.88 107.701 66.76 106.261 67 104.941 67.48 103.741 68.2 102.781 69.16 101.941 70.36 101.341 71.56 101.101 72.88 100.981 74.32 101.221 75.64 101.701 76.96 102.421 78.16 103.381 79.12 104.581 79.96"/><polyline class="cls-1" points="291.781 55.046 292.381 54.83 292.861 54.4 293.221 53.754 293.461 52.892 293.581 52.031 293.461 51.169 293.221 50.308 292.861 49.661 292.381 49.231 291.781 49.015"/><polyline class="cls-1" points="3.781 49.015 3.181 49.231 2.701 49.661 2.341 50.308 2.101 51.169 1.981 52.031 2.101 52.892 2.341 53.754 2.701 54.4 3.181 54.83 3.781 55.046"/><polyline class="cls-1" points="134.821 177.68 133.261 178.4 131.821 179.36 130.501 180.44 129.301 181.64 128.341 182.96 127.501 184.52 126.781 186.08 126.421 187.64 126.061 189.32 126.061 191"/><polyline class="cls-1" points="182.341 188.24 181.501 186.2 180.421 184.4 179.101 182.6 177.661 181.04 175.981 179.6 174.181 178.4 172.261 177.44 170.221 176.6"/></g></g></svg>