<svg xmlns="http://www.w3.org/2000/svg" viewBox="0 0 600.86328 600.86426"><defs><style>.cls-1{fill:none;stroke:#000;stroke-miterlimit:10;stroke-width:17px;}</style></defs><g id="Layer_2" data-name="Layer 2"><g id="Layer_2-2" data-name="Layer 2"><path d="M300.43164,600.86426A300.43234,300.43234,0,0,1,87.99414,87.99463,300.475,300.475,0,0,1,564.1875,444.39453l-14.91406-8.15771a283.75387,283.75387,0,0,0,34.58984-135.80469C583.86328,144.147,456.7168,17,300.43164,17,144.147,17,17,144.147,17,300.43213S144.147,583.86426,300.43164,583.86426a283.90962,283.90962,0,0,0,133.76465-33.48535l8.03516,14.98047A300.96273,300.96273,0,0,1,300.43164,600.86426Z"/><path d="M300.43164,505.12793c-112.86963,0-204.6958-91.82617-204.6958-204.6958a203.25171,203.25171,0,0,1,17.18506-82.22119l15.56543,6.835a186.35615,186.35615,0,0,0-15.75049,75.38623c0,103.4956,84.2002,187.6958,187.6958,187.6958,103.49512,0,187.69531-84.2002,187.69531-187.6958s-84.20019-187.6958-187.69531-187.6958a187.5524,187.5524,0,0,0-58.26172,9.21582L236.898,105.79a204.53506,204.53506,0,0,1,63.53369-10.05371c112.86914,0,204.69531,91.82617,204.69531,204.6958S413.30078,505.12793,300.43164,505.12793Z"/><line class="cls-1" x1="300.43141" y1="380.58691" x2="300.43141" y2="412.89652"/><line class="cls-1" x1="253.3178" y1="365.27952" x2="234.32669" y2="391.41853"/><line class="cls-1" x1="224.1997" y1="325.20177" x2="193.47144" y2="335.18599"/><line class="cls-1" x1="224.19986" y1="275.66305" x2="193.4716" y2="265.67883"/><line class="cls-1" x1="253.31775" y1="235.58528" x2="234.32664" y2="209.44626"/><line class="cls-1" x1="300.43171" y1="220.27685" x2="300.43171" y2="187.96725"/><line class="cls-1" x1="347.5458" y1="235.58523" x2="366.53691" y2="209.44621"/><line class="cls-1" x1="376.66366" y1="275.66298" x2="407.39192" y2="265.67876"/><line class="cls-1" x1="376.66289" y1="325.20146" x2="407.39115" y2="335.18567"/><line class="cls-1" x1="347.54634" y1="365.27898" x2="366.53745" y2="391.418"/><path d="M300.43164,387.731a87.29908,87.29908,0,1,1,87.29883-87.29883A87.39772,87.39772,0,0,1,300.43164,387.731Zm0-157.59815a70.29908,70.29908,0,1,0,70.29883,70.29932A70.37883,70.37883,0,0,0,300.43164,230.13281Z"/><path d="M167.53662,213.08838a59.511,59.511,0,1,1,59.51123-59.51123A59.57841,59.57841,0,0,1,167.53662,213.08838Zm0-102.022a42.511,42.511,0,1,0,42.51123,42.51074A42.559,42.559,0,0,0,167.53662,111.06641Z"/><path d="M504.792,565.57812a59.511,59.511,0,1,1,59.51074-59.51171A59.57882,59.57882,0,0,1,504.792,565.57812Zm0-102.022a42.511,42.511,0,1,0,42.51074,42.51026A42.55857,42.55857,0,0,0,504.792,463.55615Z"/></g></g></svg>