<svg xmlns="http://www.w3.org/2000/svg" viewBox="0 0 621.62744 738.11816"><g id="Layer_2" data-name="Layer 2"><g id="Layer_1-2" data-name="Layer 1"><path d="M479.272,738.11816l-.41113-.19824c-.3916-.18847-.78125-.38574-1.16992-.582-.80469-.40625-1.56446-.791-2.334-1.0957-15.30957-6.08106-21.2832-18.67676-15.98047-33.69434A161.13921,161.13921,0,0,1,471.78662,675.915c14.59766-25.32422,23.35938-49.92676,26.78711-75.21484l.17969-1.33106,4.71484-1.21777.6875,1.54394c1.46582,3.28516,3.002,6.61328,4.48828,9.833,3.31641,7.18457,6.74512,14.61328,9.64942,22.13672,7.5332,19.51367,14.24609,40.72558,12.3789,63.60449-1.73242,21.22168-12.94433,35.24414-33.32519,41.67578a3.90451,3.90451,0,0,0-.60059.39942c-.21484.15918-.43066.31738-.65234.458l-.49219.31543Zm20.832-92.01562c-8.55273,17.43164-17.39746,35.457-26.03222,53.16992a48.79566,48.79566,0,0,0-2.79688,7.457c-1.32031,4.40039-1.15429,8.17578.49219,11.22071,1.6543,3.05957,4.74512,5.27832,9.18652,6.59375a23.0486,23.0486,0,0,0,6.55664.94043c15.14551,0,29.417-13.8711,30.541-29.68458,1.54785-21.76171-4.77246-42.21093-12.3125-61.18164Z"/><path d="M479.72888,736.118c-1.20989-.58239-2.3895-1.241-3.63435-1.7353-14.066-5.5863-19.88044-16.87266-14.83184-31.16872a159.238,159.238,0,0,1,12.256-26.29978C487.17148,653.23,496.863,628.21554,500.555,600.96874l1.77467-.45942c4.73215,10.61235,9.919,21.04917,14.098,31.87514,7.77212,20.13431,14.0497,40.69509,12.25161,62.722-1.66678,20.41873-12.35959,33.7542-31.93351,39.9312a8.093,8.093,0,0,0-1.72891,1.08029Zm26.1864-106.402c-11.27422,22.99008-22.49559,45.81672-33.64108,68.68039a51.36576,51.36576,0,0,0-2.91578,7.75888c-2.98267,9.9475,1.0852,17.36165,11.02728,20.30678,17.744,5.25646,38.23662-10.49027,39.661-30.52032C521.73392,672.21653,514.42429,650.48345,505.91528,629.716Z"/><path d="M492.71729,602.18066c-3.75293,0-6.25489-2.0205-8.39844-4.2041-8.21485-8.36718-16.793-16.39062-25.875-24.88476q-3.999-3.73976-8.125-7.61719c-1.59473,5.28613-5.27442,7.86719-11.165,7.86719-.59668.001-1.20117-.02442-1.81055-.06641-2.84375-.19824-5.77441-.33008-8.60937-.458-8.64063-.38867-17.57618-.792-25.9541-3.0957-18.03028-4.959-25.24317-17.35547-21.4375-36.84277,1.13183-5.79688,1.75488-8.99024.87792-10.71094-.86816-1.70508-3.80957-3.08594-9.14843-5.59375l-.65723-.30762c-20.2959-9.54-41.00391-14.37646-61.54785-14.37646-23.81152,0-48.27393,6.50439-72.7085,19.33154a13.078,13.078,0,0,0-1.37793.90234q.33765,1.76367.66846,3.53907c.65283,3.47949,1.32813,7.07812,2.105,10.58593,2.6499,11.96192-1.61182,21.96094-12.32373,28.917-9.12793,5.92675-19.76807,8.80761-32.52783,8.80761a131.86268,131.86268,0,0,1-19.21924-1.61425c-2.11914-.30567-3.37939-2.3125-4.83887-4.63575-.26758-.42578-.53906-.8584-.82129-1.29q-3.92945,3.6299-7.90478,7.26465c-8.25,7.5625-16.78125,15.38281-24.89844,23.39551-2.89258,2.85449-5.47754,4.07324-8.644,4.07324a16.38075,16.38075,0,0,1-4.1001-.58887c-17.94629-4.64746-34.13769-13.65039-49.5-27.52148C37.145,539.07812,15.34863,495.40576.56348,461.15479L0,459.84912l40.23633-36.896-9.28125-1.60205L32.583,418.813c12.72949-19.84278,27.15771-42.333,54.896-48.63037a27.50453,27.50453,0,0,1,6.06934-.63574,54.432,54.432,0,0,1,15.84668,2.78564,16.50972,16.50972,0,0,0,4.85889.86133,12.33666,12.33666,0,0,0,5.81738-1.60156c45.80273-23.58936,88.55273-38.85254,130.69385-46.66211,6.35009-1.17676,12.73095-2.01221,19.48681-2.896,2.15869-.28272,4.355-.56982,6.59912-.875-.95361-1.30859-1.86572-2.55518-2.79785-3.7666-32.35888-42.07666-55.57422-78.3374-73.05908-114.11572a136.10762,136.10762,0,0,1-13.894-70.26221A141.36736,141.36736,0,0,1,208.252,68.62549C234.9751,25.74023,280.88916.08594,331.0708,0h.2832c35.627,0,68.40528,11.31689,94.791,32.728,26.39844,21.42041,43.94043,50.9497,50.73144,85.396,5.28028,26.7793,1.58594,53.94287-11.291,83.04346-17.38867,39.29443-41.83984,73.436-65.39453,105.0376-3.98047,5.34033-8.08692,10.69678-12.05762,15.87646q-1.90137,2.48-3.79394,4.95362c5.56835,1.75781,11.14941,3.46289,16.57128,5.11914,14.78418,4.5166,28.748,8.78271,42.68067,14.08008,14.94922,5.68408,29.68555,12.57519,43.9375,19.23925q6.58153,3.0769,13.17187,6.12256c2.46,1.12988,4.12305,1.7417,5.86133,1.74219h.001a8.714,8.714,0,0,0,3.93652-1.03516,33.03061,33.03061,0,0,1,14.76953-3.48535,39.15779,39.15779,0,0,1,15.82325,3.54c22.12109,9.76123,35.36425,28.16553,46.38085,46.59961l1.51954,2.54346-8.64356,1.354,41.27832,36.85742-.44629,1.26465a313.98009,313.98009,0,0,1-39.248,76.20459c-13.99024,19.87012-28.80372,35.09863-45.28809,46.55469a113.59921,113.59921,0,0,1-41.07617,18.11523A13.50606,13.50606,0,0,1,492.71729,602.18066Zm112.2041-134.39111c-37.042,8.76611-100.62207,78.82178-108.56348,120.13525,7.73633-.82226,18.64941-5.39843,29.29688-12.35546,15.97656-10.43848,30.36816-24.71582,43.99511-43.64746A306.67324,306.67324,0,0,0,604.92139,467.78955Zm-587.08692.42481c11.18506,29.83447,42.49512,75.79052,65.03516,94.99658,10.73242,9.14551,23.97412,19.02929,41.41113,23.93066-5.23779-20.63867-22.22265-48.52344-45.07226-73.76953C56.88428,488.70654,33.79883,471.79541,17.83447,468.21436Zm4.77051-12.0835c51.88574,24.40283,88.80762,64.96094,112.73291,123.83105q3.34863-2.92968,6.6001-5.80566c7.0625-6.23047,13.73389-12.11426,20.74853-17.77734,3.07862-2.48438,3.46-4.165,1.8545-8.17286-10.25-25.59082-20.87061-45.85839-33.42383-63.78417-19.50928-27.85792-39.91211-45.53956-64.20948-55.64454a19.27453,19.27453,0,0,0-7.28906-1.79345c-2.87353,0-5.398,1.19336-7.94433,3.75634a75.63387,75.63387,0,0,1-7.66651,6.46289c-1.76074,1.35547-3.582,2.75684-5.249,4.22071-4.22608,3.71094-8.32031,7.48681-12.65527,11.48388Q24.37207,454.50514,22.605,456.13086Zm538.48438-29.55713a5.13061,5.13061,0,0,0-2.11036.37158c-2.71777,1.36231-5.52148,2.69483-8.23144,3.9834-8.53516,4.05713-17.36035,8.25293-24.69629,13.93408-38.36719,29.7085-58.12012,72.22412-71.044,105.94483a4.24486,4.24486,0,0,0,.53321,2.96484c8.13086,7.23535,16.25683,14.19629,24.86035,21.56641q2.61474,2.23974,5.252,4.50195C509.63428,520.86328,546.731,480.27,598.92334,455.898q-3.54931-2.96338-6.9834-5.8418c-9.47656-7.93652-18.42871-15.43261-27.55664-22.67431A5.91376,5.91376,0,0,0,561.08936,426.57373ZM183.19922,560.27246a87.42523,87.42523,0,0,0,11.99658.9082h.002c8.89795,0,16.438-1.8125,23.05176-5.53906,7.50342-4.22754,10.30127-8.88867,9.07178-15.11523-.27881-1.41407-.54736-2.835-.81592-4.25684-1.15918-6.13672-2.3584-12.48242-4.4751-18.29-19.48193-53.43945-57.41162-97.05078-115.956-133.32568a19.74042,19.74042,0,0,0-10.55908-2.9541,29.60559,29.60559,0,0,0-11.04834,2.36474c-12.98828,5.2627-22.18262,14.78028-31.59131,27.46143,33.66553,8.21826,58.76318,25.79785,83.44678,58.30469,17.95849,23.64941,32.15283,51.28759,44.67041,86.979A7.91246,7.91246,0,0,0,183.19922,560.27246ZM525.97314,382.08105c-6.84375,0-14.05175,2.75342-22.68457,8.66553-27.99707,19.17383-52.05468,41.48047-71.50195,66.29932-21.1582,27.00146-33.34668,52.21289-38.35742,79.3418-2.00391,10.85058,1.19238,16.85937,10.68848,20.09277,6.81152,2.31933,14.46191,2.958,21.86035,3.57617,2.68261.22363,5.457.45508,8.167.76367a7.01132,7.01132,0,0,0,.78906.04785c1.88867,0,3.15821-.73828,4.85254-4.7705,1.75391-4.17578,3.47461-8.374,5.19629-12.57422,6.249-15.24805,12.71094-31.0166,20.832-45.60938,27.42188-49.27051,59.03223-76.0708,102.13867-86.4375-1.37793-1.49609-2.70019-2.95947-3.99511-4.3916a157.38005,157.38005,0,0,0-12.126-12.48779C542.04443,385.94092,534.06885,382.08105,525.97314,382.08105Zm-399.05908.21241a327.42353,327.42353,0,0,1,61.94922,55.87793c19.8042,23.09326,34.09473,46.48974,43.63574,71.45459,29.57325-14.1128,53.67578-20.43653,77.90479-20.47364h.2041c29.65234,0,55.63965,9.99366,77.30469,20.07227,9.20605-24.5459,23.5-47.92334,43.64453-71.39307a317.15564,317.15564,0,0,1,61.80469-55.57715,14.00514,14.00514,0,0,0-1.92188-1.2373c-40.63672-20.415-77.80957-33.84717-113.64258-41.064a2.64075,2.64075,0,0,0-.51074-.04394,8.396,8.396,0,0,0-5.41992,2.47217c-11.19238,13.76953-22.24414,27.9126-32.85059,42.03662-1.49316,1.98828-3.54492,4.27-6.1875,4.27-2.61523,0-4.63965-2.23145-6.27636-4.41455-3.25489-4.34326-6.751-8.65772-10.13086-12.83057-5.97071-7.36963-12.14551-14.99023-17.30371-23.13672-6.49805-10.25976-13.20508-14.83545-21.74756-14.83545a30.72857,30.72857,0,0,0-8.9878,1.49121,21.79662,21.79662,0,0,1-3.939.71729c-.38623.04541-.772.09082-1.15527.14355-40.69043,5.61231-78.55713,20.32032-107.00049,32.50733-7.24561,3.10449-14.29053,6.56738-21.749,10.2334Q130.78418,380.40919,126.91406,382.29346Zm205.729-369.959a133.724,133.724,0,0,0-90.03125,35.19629c-36.43848,33.144-49.898,74.104-40.00489,121.74219,4.74121,22.83154,16.71729,43.30029,28.29883,63.09521l1.312,2.24366c20.42237,34.94238,45.81836,67.24707,70.37842,98.48828l5.57031,7.08984,24.8418,31.65527q9.40284-12.14281,18.76465-24.12548c14.88184-19.0918,30.27051-38.834,44.94726-58.43164,20.33106-27.14893,43.2793-60.07569,59.332-98.4419,11.60742-27.74219,13.48535-54.312,5.74218-81.227C445.05518,51.43018,393.15283,12.33447,332.64307,12.33447Z"/><path d="M381.02455,328.08109c21.11888,6.74383,41.85451,12.41783,61.856,20.02291,19.40032,7.37646,38.09415,16.63268,56.98525,25.30948,3.95068,1.81458,7.03009,2.90462,11.52022.68233,9.40963-4.65711,19.39383-4.10241,28.89851.0917,20.90982,9.22683,33.86426,26.37249,45.47139,45.7958-3.50355.54893-6.15085.96369-9.89026,1.5496,14.83537,13.24635,28.985,25.8804,43.42989,38.77808a310.04987,310.04987,0,0,1-38.998,75.7191c-12.47725,17.72275-26.8819,33.61557-44.794,46.0635A110.97192,110.97192,0,0,1,495.15,599.89621c-3.98507.85467-6.34514-.20513-9.4039-3.32074-11.42491-11.6377-23.53824-22.59949-36.68312-35.035-1.00356,8.98607-6.12591,10.11887-11.581,9.73961-11.44053-.79541-23.27953-.49132-34.17164-3.487-17.53645-4.82308-23.488-16.696-20.00557-34.5312,2.566-13.142,2.46573-12.92847-10.0398-18.80609-46.24-21.73287-91.49124-18.38986-136.0364,4.99521-.80309.42163-1.52,1.00754-2.6586,1.77347.99494,5.1128,1.89157,10.31208,3.03125,15.45749,2.59443,11.713-1.90644,20.60244-11.46044,26.80587-15.58164,10.11717-32.98622,9.40748-50.37139,6.89242-1.83927-.266-3.20051-3.83692-5.63017-6.9644-11.42385,10.589-23.25821,21.13405-34.52461,32.25452-3.47748,3.43247-6.29869,4.14652-10.83824,2.971C106.16719,593.82275,90.18206,584.273,76.116,571.5721,42.22218,540.96774,20.48131,502.24981,2.39984,460.36227c13.98713-12.826,27.757-25.45275,42.18941-38.687-3.29223-.56844-6.2593-1.08072-10.32288-1.7823,13.72914-21.40065,27.49193-41.82043,53.65528-47.76024,6.52573-1.48143,14.27454.07762,20.88536,2.11137,4.72007,1.452,7.96288,1.29823,12.18032-.87388,41.30305-21.27217,84.28065-37.97487,130.14189-46.47357,9.31-1.72523,18.75552-2.71888,29.30956-4.2159-1.74654-2.37213-3.23342-4.47053-4.8-6.50757-27.5541-35.82828-52.89387-72.944-72.84773-113.77464C157.10583,108.91508,229.01,2.17481,331.07475,1.9998c71.78361-.12309,130.16732,47.157,143.84025,116.51112,5.62793,28.54686.46711,55.575-11.15881,81.84772-16.80447,37.97533-40.52594,71.58965-65.16886,104.65089C392.79038,312.78682,386.84007,320.4498,381.02455,328.08109Zm-48.006,47.01751c22.09343-28.56157,44.09282-56.29076,65.30213-84.61174,23.1536-30.91714,44.55186-62.95841,59.57673-98.86875,11.2819-26.96438,13.94658-54.30136,5.81934-82.55195-27.914-97.02993-147.41843-131.264-222.45087-63.01494-36.37133,33.08315-50.73887,74.88866-40.6172,123.62835,4.98612,24.01,17.61211,45.0161,29.84236,65.94176,22.01281,37.66347,49.25525,71.59919,76.10264,105.80365C315.27968,352.49117,323.96336,363.55922,333.01859,375.0986Zm163.82459,7.20465a44.748,44.748,0,0,0-4.50557-3.07365c-36.40723-18.2903-74.07139-33.16635-114.14567-41.23713-2.3786-.479-6.28534,1.16741-7.87832,3.12748q-16.84611,20.72814-32.897,42.09715c-3.67249,4.89073-5.85756,4.402-9.26379-.1427-9.0166-12.03024-19.33807-23.19329-27.34567-35.8381-8.202-12.95182-17.9412-18.83831-33.01451-14.18549a30.16883,30.16883,0,0,1-4.77706.79072c-37.56907,5.1813-72.89424,17.81616-107.51566,32.65018-10.72455,4.59508-21.09721,10.01159-32.55129,15.49235A327.048,327.048,0,0,1,187.345,439.47373c18.70375,21.8096,33.98678,45.7337,44.05218,72.90173,25.54506-12.38667,50.942-21.18037,79.00933-21.22317,28.00949-.04267,53.35717,8.90857,78.62951,20.80638,9.95863-27.46754,25.42957-51.14338,44.03866-72.82436A317.49655,317.49655,0,0,1,496.84318,382.30325Zm74.93808,30.34845c-6.90951-7.32-12.30183-13.96184-18.6236-19.55247-17.58993-15.5556-31.26138-17.52013-50.99914-4.00273-27.31791,18.70867-51.54352,40.67839-71.94641,66.716-18.70312,23.86837-33.13348,49.807-38.74953,80.21149-2.16518,11.72212,1.52846,18.78056,12.01086,22.35,9.54955,3.25177,20.23091,3.27022,30.44534,4.43343,4.1565.47338,6.00456-1.87256,7.71133-5.935,8.20363-19.52652,15.67227-39.54885,25.93336-57.986C490.557,457.57188,520.64868,423.77917,571.78126,412.6517Zm-522.305.13154c38.97851,8.75926,63.48345,29.58718,85.25345,58.25662,19.873,26.17122,33.5528,55.57312,44.37585,86.43185.65294,1.86171,2.28,4.56811,3.74656,4.77168,12.51984,1.73729,25.00118,1.55226,36.37936-4.85918,6.49-3.65707,11.73392-8.72647,10.05228-17.24581-1.51517-7.676-2.71336-15.54339-5.37478-22.84387-21.74479-59.648-64.01-101.64336-116.78154-134.3408-7.31559-4.53278-15.6286-3.89614-23.41149-.74286C69.015,388.16713,59.05125,399.53816,49.47623,412.78324Zm553.16334,43.6102c-13.12778-10.9368-24.90164-20.9702-37.01264-30.57844-1.6957-1.34527-5.56825-1.64762-7.54376-.65764-11.29818,5.6618-23.39205,10.48539-33.25669,18.124-35.56612,27.54028-55.94611,65.739-71.68591,106.81066-.54688,1.42705-.016,4.20888,1.06777,5.17311,10.49949,9.34174,21.22488,18.4296,32.26,27.91148C508.865,526.69128,544.63139,482.53959,602.63957,456.39344ZM134.53083,583.32039c10.20877-8.88083,19.56552-17.43623,29.41206-25.3848,4.02771-3.25139,4.23-6.04114,2.4549-10.47267-9.03417-22.55427-19.67987-44.25019-33.64239-64.188-16.95473-24.21055-37.10073-44.70808-65.07954-56.34422-6.74121-2.80363-12.01068-3.04426-17.4205,2.39989-3.88692,3.91158-8.65181,6.9337-12.81625,10.59047-6.09271,5.35-11.9984,10.91292-18.39855,16.76433C76.43264,482.7893,112.07471,526.6467,134.53083,583.32039Zm473.604-118.16409c-38.264,5.143-108.11371,82.37763-114.16136,124.90122,8.07007.02468,20.56118-4.83365,32.77525-12.81382,17.85959-11.66889,32.14956-26.9618,44.52438-44.15361A311.053,311.053,0,0,0,608.13483,465.1563ZM126.96191,589.90486c-9.268-46.01319-76.73392-120.24213-112.159-124.23323C24.95433,495.65474,58.01794,544.6629,81.572,564.73312,94.80915,576.0124,108.95789,585.59969,126.96191,589.90486Z"/><path d="M332.7251,211.94922c-33.52637-.27686-59.84766-26.38428-59.92237-59.436a60.281,60.281,0,0,1,59.86084-60.439l.22461-.00049a59.9393,59.9393,0,1,1,.34961,119.87744Zm-.18067-106.9082c-25.333,0-46.85937,21.36035-47.00634,46.644a47.079,47.079,0,0,0,47.17334,47.53174l.21386.00049c25.59278.00048,47.35254-21.311,47.51563-46.53711.168-25.99659-21.10449-47.3667-47.41992-47.63672Z"/><path d="M390.94127,152.17739a57.50416,57.50416,0,0,1-58.19922,57.772c-32.30318-.26679-57.86752-25.611-57.9393-57.44045a58.06984,58.06984,0,1,1,116.13852-.33157Zm-107.403-.50413A49.078,49.078,0,0,0,332.703,201.2166c26.88773.12257,49.56647-22.00217,49.73811-48.5231.17483-27.022-22.05962-49.36915-49.3996-49.65C306.20294,102.76774,283.69389,124.87961,283.53825,151.67326Z"/></g></g></svg>