<svg xmlns="http://www.w3.org/2000/svg" viewBox="0 0 658.3374 611.48047"><defs><style>*{fill:#fff;stroke:#fff;}</style></defs><g id="Layer_2" data-name="Layer 2"><g id="Layer_1-2" data-name="Layer 1"><path d="M142.52441,380.87256a20.15164,20.15164,0,0,0-1.44433-1.70068c-1.39258-1.52881-2.97022-3.26124-3.00049-5.38672-.23633-16.77686-.21875-33.83057-.20166-50.32276q.00659-6.895.00879-13.79052v-6.80762c-2.64746.01562-5.25635.05957-7.79688.10205-3.16992.05322-6.16406.10351-9.19433.10351-4.21192,0-7.68946-.10058-10.94434-.3164C80.52,300.80273,56.04736,287.05811,37.21191,261.90137,14.60156,231.70215,6.2373,196.83154.56689,163.648L0,160.3335,3.18311,161.418c65.59814,22.35107,107.49121,52.2959,134.70312,96.543v-27.2085c0-4.07471-.05664-8.228-.11182-12.24512-.12939-9.44482-.26318-19.21093.32911-28.80957.52246-8.47656-2.1128-14.0747-9.4004-19.96826-31.21-25.24072-49.8916-54.4209-57.11376-89.207C65.85107,52.87939,67.99414,27.37012,78.1416,2.5376L79.17871,0l2.1001,1.76172c33.93066,28.46924,54.13672,66.40674,61.63867,115.8125,16.248-35.12647,34.58154-48.37207,65.80908-48.37207,1.501,0,3.0625.03174,4.64063.09424l4.374.17382-2.99512,3.19288c-1.10351,1.17675-2.05468,2.40429-2.894,3.4873-1.87109,2.41406-3.34912,4.3208-5.543,4.41992-33.63232,1.51319-54.1958,25.30371-56.418,65.27051-.93945,16.89453-.71631,33.85059-.48,51.80176.08106,6.15918.16455,12.47314.20166,18.92969,1.01612-1.55616,1.83008-2.81836,2.61719-4.10743,28.19678-46.19531,56.73682-79.02,89.81641-103.30078,29.52588-21.67187,58.65527-32.20654,89.05273-32.20654,2.70313,0,5.4541.08545,8.17676.25391,5.93848.36718,11.88867,1.32275,17.64355,2.24707,2.61719.42041,5.32325.85449,7.97754,1.22509l1.72364.24073V85.04l-.32422.49756c-4.749,7.2876-9.49121,14.76806-14.07813,22.002-10.36914,16.35742-21.0918,33.27149-32.67773,49.19092-22.33106,30.68506-47.06983,54.15869-75.62989,71.76318-23.96435,14.77149-47.07373,21.95166-70.64794,21.95166a117.96032,117.96032,0,0,1-20.62354-1.84472,7.155,7.155,0,0,0-1.26611-.08936c-.42774,0-.88477.01709-1.38867.03613l-.28956.01026.00147,11.94873c.00244,10.27636.00439,20.46386-.0044,30.65039l-.00878,13.78271c-.01123,22.58789-.023,45.94483-.23145,68.91993-.01855,1.99755-1.28711,3.69238-2.40674,5.1875a19.35488,19.35488,0,0,0-1.16992,1.67578l-1.55957,2.65332ZM19.20654,188.21729c5.91895,31.26171,16.76612,54.915,33.90869,74.08251,14.09522,15.75977,30.84229,25.01319,49.77637,27.50342a85.111,85.111,0,0,0,11.22608.63721c3.15527,0,6.39453-.10742,9.52734-.21143,2.4126-.08007,4.88769-.16211,7.35547-.19629Zm109.94385,83.7539c-5.53955-14.49463-19.97949-33.27441-39.37646-50.85058-19.26954-17.46143-39.26514-30.02637-54.20215-34.315Zm29.16943-34.72363a119.29183,119.29183,0,0,0,13.9834.84131c24.64746.001,47.521-7.88233,71.98535-24.8086,43.37354-30.01025,73.21289-72.00879,94.36231-105.24463.16992-.26709.333-.54345.49609-.83691ZM330.103,88.728c-12.666,0-24.99121,2.31689-38.7876,7.291-33.78906,12.1836-63.48682,35.22754-93.46,72.521-9.73242,12.10889-18.79248,25.13623-27.55469,37.73486-3.46045,4.97559-7.02392,10.09961-10.60986,15.13965L343.00049,89.542A104.52828,104.52828,0,0,0,330.103,88.728ZM84.85352,21.29c-8.32081,21.606-4.85547,56.44922,8.97851,88.0835,10.37061,23.71386,24.77686,41.03222,38.9834,47.05615C134.00977,99.68066,118.72266,56.59277,84.85352,21.29Z"/><path d="M364.62056,84.44559c-15.48568,23.761-30.02991,48.2069-46.69687,71.10836-20.52481,28.20221-45.06718,52.74826-75.0623,71.237-27.63817,17.03592-57.15988,25.66647-89.87187,19.84076a35.67456,35.67456,0,0,0-5.29521-.03215c0,15.03274.01043,29.79426-.00229,44.55581-.0237,27.56244.00941,55.12549-.24043,82.686-.01782,1.96559-2.15114,3.912-3.30078,5.86739-1.41877-1.98318-4.04284-3.94935-4.071-5.95213-.30093-21.35823-.19064-42.72234-.19314-64.08481-.00038-3.20082-.00005-6.40164-.00005-8.81409-10.48835,0-20.18474.53772-29.80313-.09985-30.04045-1.9912-53.49092-16.308-71.27044-40.055C17.66453,232.45613,8.73362,199.56491,2.538,163.31126,60.28442,182.987,109.15607,211.071,139.88646,265.28025V230.75264c0-13.64827-.62584-27.33512.21292-40.93166.59159-9.59-2.689-15.62233-10.13833-21.64688-28.44812-23.007-48.84839-51.61862-56.41331-88.05846C68.19968,54.35407,69.49576,28.983,79.9933,3.29391c38.01785,31.899,55.82933,72.97316,61.90634,121.51449,17.1894-40.44332,35.91324-54.92321,71.3878-53.51362-3.29535,3.51326-5.10137,7.18875-7.06884,7.27728-37.40621,1.68309-56.2373,29.61462-58.32436,67.15778-1.37947,24.81494-.26119,49.7687-.26119,77.53945,3.01953-4.667,4.72526-7.17611,6.304-9.76268,23.9747-39.27785,51.83705-75.23711,89.2931-102.73016,28.46655-20.89467,59.81521-33.80234,95.92267-31.56878,8.52789.52751,16.9805,2.27218,25.46773,3.45694ZM156.50487,222.43515q1.25463.965,2.50921,1.93L348.17582,88.28273c-21.51479-3.65331-39.82306-.53265-57.53849,5.855-39.27409,14.161-68.80868,41.38182-94.34082,73.14949C182.11479,184.93235,169.71035,204.00556,156.50487,222.43515Zm-3.4138,16.10942c36.37583,5.74247,65.50675-5.05726,92.33519-23.61971,40.01637-27.6871,69.12777-65.297,94.91225-105.81545,1.15464-1.81435,1.95214-3.8559,4.10812-8.18579C279.827,147.39739,217.45313,192.25606,153.09107,238.54457ZM84.17981,17.73279C64.91667,59.85635,96.20456,146.63167,134.74257,159.29061,136.36427,105.80672,123.73216,57.69726,84.17981,17.73279Zm-67.967,165.05289c4.972,30.04477,14.89409,57.90673,35.41184,80.84782,13.66084,15.27433,30.569,25.46488,51.00628,28.15281,10.06059,1.32314,20.43908.22947,30.67374.22947q.13029-1.17639.26048-2.3528Q74.889,236.22436,16.21276,182.78568Zm116.87208,95.47026c-6.62592-33.59154-70.54159-91.09887-104.24073-94.86856C63.48447,214.91326,97.67285,246.02778,133.08484,278.25594Z"/><path d="M240.55176,611.48047l-.25928-16.76758q-.33984-21.92871-.665-43.85547c-.04-2.72656-.02685-5.47949-.0166-7.36719-5.21191-.48535-10.395-.82031-15.4248-1.14648-12.53077-.81055-24.3667-1.57715-35.9004-4.459-27.75488-6.93653-49.16943-25.28028-65.46777-56.08008-9.14746-17.28614-15.35937-36.34326-20.14209-61.79053l-.5664-3.01562,2.9873.69873a267.52749,267.52749,0,0,1,77.69092,31.74707c23.17334,13.88964,41.81885,30.66259,56.82763,51.14941V478.3833q0-5.74218-.03759-11.48486c-.04639-9.38135-.09424-19.082.15234-28.63086.11328-4.37305-1.31152-6.95069-5.44482-9.84961-25.45069-17.85156-42.23828-36.646-52.83106-59.147-12.37842-26.29493-14.17773-53.56934-5.34765-81.06592a56.4095,56.4095,0,0,1,2.33251-6.00488,14.34738,14.34738,0,0,1,1.521-2.43946c.28076-.39209.5918-.82519.93018-1.33105l1.13379-1.69287,1.67138,1.16455c19.70508,13.72558,33.43213,28.9541,41.96582,46.55468,6.28028,12.95362,11.19971,26.5625,15.95752,39.72315,1.49512,4.13574,2.93115,8.10791,4.39258,12.02246.16406-.38428.332-.7749.50147-1.16455,9.97168-22.9458,33.91259-38.97119,58.22119-38.97119,1.07715,0,2.167.03125,3.2373.09326,2.24317.12988,3.8711,1.98291,5.44629,3.7749a21.4414,21.4414,0,0,0,1.68652,1.78906l1.31153,1.17188-3.03321,4.42236-.94238.08106c-1.20605.10351-2.41406.1875-3.62207.271-2.50488.17334-5.09375.353-7.57324.72071C271.82568,352.752,254.75049,371.521,251.8667,402.668c-.20752,2.24023-.20947,4.585-.21143,6.852-.0122,15.73779-.01123,31.39648-.00976,47.94482l.00049,10.10987q2.60816-2.97437,5.09423-5.83936c5.77442-6.63623,11.229-12.90478,16.98047-18.87646,22.23047-23.08106,53.21241-51.03077,95.82862-62.39209a109.19326,109.19326,0,0,1,70.14746,4.18261l1.999.78467-.92383,1.938c-18.47363,38.74854-43.585,67.31885-76.77051,87.34326-24.373,14.707-50.48144,21.85694-79.81689,21.85791a199.64662,199.64662,0,0,1-32.53857-2.7998v117.707ZM120.5,441.23584c14.28613,61.47363,57.73633,89.07764,95.39209,89.07764a83.759,83.759,0,0,0,14.67578-1.30274Zm24.09717,3.77344,83.38574,66.47021C208.20117,476.458,175.98389,457.83691,144.59717,445.00928Zm120.95166,37.9458a129.45376,129.45376,0,0,0,20.61084,1.64941c52.76953,0,103.81445-31.59521,131.72558-81.01709Zm133.84424-94.13867c-50.76368,0-99.92578,39.63183-131.13184,79.10888l148.69531-77.42041A91.40812,91.40812,0,0,0,399.39307,388.81641ZM186.71045,296.23486c-15.02344,37.46289,6.21191,89.3916,47.46338,116.082C238.20508,375.84229,221.63916,322.80518,186.71045,296.23486Z"/><path d="M242.52083,609.48027q-.451-29.32624-.89408-58.65253c-.0547-3.76891-.00785-7.53933-.00785-9.15314-18.54944-1.85464-36.25121-1.58267-52.84815-5.7304-29.95691-7.4865-50.00362-28.27546-64.18547-55.07522-9.90871-18.72457-15.71541-38.72656-19.94381-61.22433a265.1817,265.1817,0,0,1,77.11777,31.515c23.636,14.16686,43.73319,32.11421,59.85585,55.72412q0-14.25034,0-28.50064c.00038-13.3556-.23063-26.71725.11451-40.06394.14016-5.42043-1.95652-8.49494-6.296-11.53863-21.90042-15.36092-40.57947-33.74128-52.17-58.36164-12.16266-25.83578-13.99437-52.3809-5.25277-79.60264a54.22938,54.22938,0,0,1,2.25009-5.791,29.547,29.547,0,0,1,2.29122-3.48263c17.52893,12.20971,32.20578,27.0096,41.30913,45.78586,8.92406,18.4064,15.08334,38.15295,22.05819,56.27748.25522-.60809,1.31143-3.20316,2.42781-5.77209,10.13632-23.325,34.75876-39.11,59.50841-37.678,2.06252.11936,3.94788,3.3,5.91554,5.05834q-.75145,1.09581-1.50291,2.19168c-3.77367.32475-7.57676.45106-11.31635,1.00556-30.20486,4.47852-48.123,24.17071-51.077,56.07175-.21837,2.35831-.21787,4.74234-.21973,7.11446-.016,20.43035-.00921,40.86074-.00921,63.26791,9.27806-10.449,17.06879-19.84971,25.515-28.61934,26.85653-27.88445,56.55922-51.62448,94.90426-61.84694,22.95368-6.11934,45.62406-5.02361,68.901,4.11208-17.39414,36.48631-41.76993,65.83771-75.9978,86.49138-34.87886,21.04637-72.731,25.57206-113.32279,18.39917V609.48027ZM422.73768,398.80444c-55.11512,28.7151-108.56335,56.56173-163.264,85.0609C322.80426,497.07881,390.47831,461.47823,422.73768,398.80444Zm-236.8773-105.684c-17.59034,39.22769,5.32974,95.42652,49.89905,122.55282C241.44958,376.84236,223.22488,319.91272,185.86038,293.12041Zm49.29882,236.994c-39.26191-31.31-78.01976-62.2181-117.79138-93.93462C131.55769,507.8612,185.34607,541.5866,235.1592,530.11444ZM422.70952,389.76462c-59.85753-15.57837-123.99684,33.23781-161.48467,84.0792C315.82738,445.41428,368.31885,418.08388,422.70952,389.76462Zm-289.62995,48.621,100.99937,80.511C213.56671,475.632,175.62427,454.19076,133.07957,438.38563Z"/><path d="M461.87158,433.29053a5.33048,5.33048,0,0,1-3.94043-1.50147c-1.75976-1.77148-1.9834-4.67968-1.96386-7.55859.10644-15.36377.08886-30.98877.07128-46.09961q-.01024-8.5503-.01367-17.09961v-8.07861c-3.85937.0415-7.70215.19384-11.4375.34179-4.23535.16748-8.61426.34082-12.84961.34082a94.64336,94.64336,0,0,1-15.46386-1.08935c-26.08594-4.26514-47.9795-19.55762-65.07129-45.45313-15.73731-23.84277-25.51856-51.76465-31.71582-90.53515l-.459-2.86866,2.84375.59522c50.21289,10.51074,102.19434,47.436,134.15039,94.87793V284.36426c0-4.41162.02344-8.82373.0459-13.23633.0625-11.98975.12793-24.38721-.291-36.54443a14.46428,14.46428,0,0,0-4.61817-9.38086c-32.48437-26.65479-52.16992-55.90235-60.18359-89.41358a139.585,139.585,0,0,1,1.0332-68.73242,75.477,75.477,0,0,1,2.84375-8.17871c.55078-1.41357,1.13379-2.90918,1.72754-4.53809l.97559-2.67627,2.18554,1.82666C433.356,81.57568,453.67041,118.83057,461.70361,167.209c5.4336-13.01855,11.62793-23.57617,21.59961-31.89648,11.34668-9.46777,25.24512-14.14111,45.06641-15.15332l1.91308-.09766,1.09473,11.62647-1.98047.19629c-1.51855.15039-2.9541.26953-4.33105.38427-2.71289.22461-5.27442.4375-7.71582.84278-19.75293,3.27978-33.50781,13.8584-40.88379,31.44287-3.59082,8.55859-6.95508,17.69678-7.2666,26.5376-.69043,19.6167-.57227,39.13037-.44727,59.79052.03711,6.16163.0752,12.48243.0918,18.89356,1.209-1.66211,2.248-3.09619,3.27246-4.53955,22.92773-32.29444,45.10351-55.3833,69.78711-72.66211,25.23828-17.666,47.97461-25.894,71.55176-25.894a100.51925,100.51925,0,0,1,16.62988,1.40527,147.1888,147.1888,0,0,1,17.31348,4.39258c2.80761.83252,5.71093,1.69287,8.73339,2.51025l2.20508.59619-.88183,2.10645c-17.90235,42.77881-42.0918,74.709-73.95118,97.61621-24.83984,17.85889-52.71386,26.91406-82.84863,26.91406A173.30989,173.30989,0,0,1,468.353,299.044V431.585l-1.26953.498A14.66228,14.66228,0,0,1,461.87158,433.29053ZM335.96436,238.20215c6.53222,27.78223,15.2246,48.31543,27.8496,65.96631,13.46387,18.82373,29.73633,30.50488,49.748,35.71093a84.62547,84.62547,0,0,0,21.53125,2.895h.002a79.65576,79.65576,0,0,0,14.292-1.30175Zm21.98339,3.6792,87.88086,80.01709C429.65381,287.104,401.99951,261.92041,357.94775,241.88135Zm123.2627,45.35547a123.652,123.652,0,0,0,23.73047,2.36279h.00488c21.93555,0,43.34277-6.35693,63.62793-18.89453,27.542-17.023,48.875-41.30957,65.06543-74.11621Zm133.1543-108.40235a83.46961,83.46961,0,0,0-21.92969,2.98487c-27.98145,7.62548-52.65625,24.123-80.00684,53.49218-8.30761,8.9209-16.11426,18.63819-23.66308,28.03565-2.72754,3.396-5.5293,6.88379-8.35059,10.32812L634.9624,181.78174A70.53236,70.53236,0,0,0,614.36475,178.83447ZM402.78467,73.33936c-13.0166,47.92431,6.40137,102.31152,47.90137,134.21289,3.45605-18.71729-.25879-45.94385-10.15918-73.73926C430.61084,105.97266,416.648,83.66943,402.78467,73.33936Z"/><path d="M321.46185,216.24177c52.33384,10.9546,105.86833,50.8485,136.56009,99.65738q0-15.76742.00005-31.53484c.00057-16.61943.32564-33.25-.24584-49.84974a16.44279,16.44279,0,0,0-5.34873-10.8584c-28.70078-23.54991-50.69287-51.46952-59.50691-88.33227a137.05628,137.05628,0,0,1,1.02108-67.75764c1.02635-3.89528,2.72056-7.61464,4.51693-12.54153,38.05911,31.79945,55.86372,72.44463,62.37595,119.79558,5.42166-14.28733,11.74741-27.95668,23.75009-37.97217,12.46142-10.39825,27.20977-13.84,43.88691-14.69138.24016,2.55284.46456,4.9388.72782,7.73706-4.59464.456-8.42361.62116-12.17647,1.24433-19.93537,3.31023-34.57921,13.99465-42.40123,32.64239-3.625,8.64205-7.098,18.06091-7.42106,27.24085-.96775,27.50029-.34817,55.05643-.34817,84.89578,3.02022-4.16779,4.98241-6.82809,6.89568-9.52309,19.52186-27.49817,41.49143-52.71388,69.30262-72.18114,25.98289-18.18749,54.13089-29.63593,86.70236-24.15525,8.3522,1.40537,16.4506,4.31838,25.85818,6.86111-16.54709,39.53937-39.38884,72.40031-73.27509,96.76433-34.69625,24.94644-73.4181,31.58712-115.98295,22.92886V430.221c-7.44569,2.92091-8.42363-.49612-8.38555-5.977.14625-21.07.05824-42.14164.05767-63.21268-.00008-3.19017,0-6.38034,0-10.08973-14.44859,0-28.26022,1.78388-41.428-.36921-27.92149-4.56543-48.42007-21.39226-63.72582-44.58122C335.07837,279.03383,326.6571,248.74418,321.46185,216.24177Zm154.35224,71.87761c33.80879,7.9499,64.98785,2.10194,93.81126-15.713,31.509-19.47487,53.24468-47.45936,68.65512-80.90507Q557.04728,239.81036,475.81409,288.11938ZM401.63056,70.094c-15.788,52.89525,7.94524,109.90256,50.36419,140.9394C461.70258,170.4652,433.519,90.87109,401.63056,70.094Zm-69.01049,162.3575c5.96511,27.64952,14.38376,51.65147,29.56742,72.88051,12.79711,17.89229,29.299,30.87086,50.87028,36.48277a82.92563,82.92563,0,0,0,40.58925.83136Zm307.08205-51.16061c-14.49384-5.52349-31.5755-5.8209-47.79263-1.40146-33.00221,8.99364-58.30887,29.75165-80.94552,54.05943-12.12638,13.02162-22.86942,27.33107-34.23675,41.05937l1.97249,2.01357C531.989,245.33639,585.27829,213.65093,639.70212,181.29093ZM451.31075,329.595c-19.23781-48.58509-57.79191-75.46053-103.58215-94.31381Q399.51967,282.43805,451.31075,329.595Z"/></g></g></svg>