<svg xmlns="http://www.w3.org/2000/svg" viewBox="0 0 796.83421 783.97961"><defs><style>*{fill:#fff;stroke:#fff;}</style></defs><g id="Layer_2" data-name="Layer 2"><g id="Layer_1-2" data-name="Layer 1"><path d="M142.52441,781.47619a20.15164,20.15164,0,0,0-1.44433-1.70068c-1.39258-1.52881-2.97022-3.26123-3.00049-5.38672-.23633-16.77686-.21875-33.83057-.20166-50.32276q.00659-6.895.00879-13.79052v-6.80762c-2.64746.01563-5.25635.05957-7.79688.102-3.16992.05322-6.16406.10352-9.19433.10352-4.21192,0-7.68946-.10059-10.94434-.31641C80.52,701.40637,56.04736,687.66174,37.21191,662.505,14.60156,632.30578,6.2373,597.43518.56689,564.25158L0,560.93713l3.18311,1.08447c65.59814,22.35108,107.49121,52.2959,134.70312,96.543v-27.2085c0-4.0747-.05664-8.228-.11182-12.24511-.12939-9.44483-.26318-19.21094.32911-28.80957.52246-8.47657-2.1128-14.07471-9.4004-19.96827-31.21-25.24072-49.8916-54.42089-57.11376-89.207-5.73829-27.64306-3.59522-53.15234,6.55224-77.98486l1.03711-2.5376,2.1001,1.76172c33.93066,28.46924,54.13672,66.40674,61.63867,115.8125,16.248-35.12646,34.58154-48.37207,65.80908-48.37207,1.501,0,3.0625.03174,4.64063.09424l4.374.17383-2.99512,3.19287c-1.10351,1.17676-2.05468,2.4043-2.894,3.4873-1.87109,2.41407-3.34912,4.3208-5.543,4.41992-33.63232,1.51319-54.1958,25.30372-56.418,65.27051-.93945,16.89453-.71631,33.85059-.48,51.80176.08106,6.15918.16455,12.47315.20166,18.92969,1.01612-1.55615,1.83008-2.81836,2.61719-4.10742,28.19678-46.19532,56.73682-79.02,89.81641-103.30079,29.52588-21.67187,58.65527-32.20654,89.05273-32.20654,2.70313,0,5.4541.08545,8.17676.25391,5.93848.36719,11.88867,1.32275,17.64355,2.24707,2.61719.42041,5.32325.85449,7.97754,1.2251l1.72364.24072v4.11572l-.32422.49756c-4.749,7.2876-9.49121,14.76807-14.07813,22.00195-10.36914,16.35743-21.0918,33.27149-32.67773,49.19092-22.33106,30.68506-47.06983,54.15869-75.62989,71.76318-23.96435,14.77149-47.07373,21.95166-70.64794,21.95166a117.96032,117.96032,0,0,1-20.62354-1.84472,7.156,7.156,0,0,0-1.26611-.08936c-.42774,0-.88477.01709-1.38867.03614l-.28956.01025.00147,11.94873c.00244,10.27637.00439,20.46387-.0044,30.65039l-.00878,13.78272c-.01123,22.58789-.023,45.94482-.23145,68.91992-.01855,1.99756-1.28711,3.69238-2.40674,5.1875a19.35642,19.35642,0,0,0-1.16992,1.67578l-1.55957,2.65332ZM19.20654,588.82092c5.91895,31.26172,16.76612,54.915,33.90869,74.08252,14.09522,15.75976,30.84229,25.01318,49.77637,27.50342a85.1111,85.1111,0,0,0,11.22608.6372c3.15527,0,6.39453-.10742,9.52734-.21142,2.4126-.08008,4.88769-.16211,7.35547-.19629Zm109.94385,83.7539c-5.53955-14.49463-19.97949-33.27441-39.37646-50.85058-19.26954-17.46143-39.26514-30.02637-54.20215-34.31494Zm29.16943-34.72363a119.29183,119.29183,0,0,0,13.9834.84131c24.64746.001,47.521-7.88232,71.98535-24.80859,43.37354-30.01026,73.21289-72.00879,94.36231-105.24463.16992-.26709.333-.54346.49609-.83692ZM330.103,489.33166c-12.666,0-24.99121,2.31689-38.7876,7.291-33.78906,12.18359-63.48682,35.22753-93.46,72.521-9.73242,12.10889-18.79248,25.13623-27.55469,37.73486-3.46045,4.97559-7.02392,10.09961-10.60986,15.13965L343.00049,490.14562A104.52828,104.52828,0,0,0,330.103,489.33166Zm-245.24951-67.438c-8.32081,21.606-4.85547,56.44922,8.97851,88.0835,10.37061,23.71386,24.77686,41.03222,38.9834,47.05615C134.00977,500.2843,118.72266,457.19641,84.85352,421.89367Z"/><path d="M364.62056,485.04923c-15.48568,23.76095-30.02991,48.20689-46.69687,71.10836-20.52481,28.2022-45.06718,52.74825-75.0623,71.237-27.63817,17.03592-57.15988,25.66647-89.87187,19.84076a35.67456,35.67456,0,0,0-5.29521-.03215c0,15.03274.01043,29.79426-.00229,44.55581-.0237,27.56245.00941,55.12549-.24043,82.686-.01782,1.9656-2.15114,3.912-3.30078,5.86739-1.41877-1.98318-4.04284-3.94935-4.071-5.95213-.30093-21.35823-.19064-42.72233-.19314-64.08481-.00038-3.20082-.00005-6.40164-.00005-8.81409-10.48835,0-20.18474.53773-29.80313-.09985-30.04045-1.9912-53.49092-16.308-71.27044-40.055C17.66453,633.05976,8.73362,600.16855,2.538,563.91489c57.74647,19.67578,106.61812,47.75976,137.34851,101.969V631.35627c0-13.64826-.62584-27.33512.21292-40.93165.59159-9.59-2.689-15.62233-10.13833-21.64689-28.44812-23.007-48.84839-51.61862-56.41331-88.05845-5.34806-25.76158-4.052-51.1327,6.44556-76.82173,38.01785,31.899,55.82933,72.97315,61.90634,121.51449,17.1894-40.44333,35.91324-54.92322,71.3878-53.51363-3.29535,3.51327-5.10137,7.18875-7.06884,7.27728-37.40621,1.68309-56.2373,29.61463-58.32436,67.15778-1.37947,24.81495-.26119,49.7687-.26119,77.53945,3.01953-4.667,4.72526-7.17611,6.304-9.76268,23.9747-39.27784,51.83705-75.23711,89.2931-102.73016,28.46655-20.89467,59.81521-33.80234,95.92267-31.56878,8.52789.52751,16.9805,2.27218,25.46773,3.457ZM156.50487,623.03879q1.25463.965,2.50921,1.93C221.5175,580.004,284.02092,535.0392,348.17582,488.88636c-21.51479-3.6533-39.82306-.53265-57.53849,5.855-39.27409,14.161-68.80868,41.38182-94.34082,73.14949C182.11479,585.536,169.71035,604.6092,156.50487,623.03879Zm-3.4138,16.10941c36.37583,5.74247,65.50675-5.05725,92.33519-23.61971,40.01637-27.6871,69.12777-65.297,94.91225-105.81545,1.15464-1.81435,1.95214-3.8559,4.10812-8.18579C279.827,548.001,217.45313,592.85969,153.09107,639.1482ZM84.17981,418.33642C64.91667,460.46,96.20456,547.2353,134.74257,559.89425,136.36427,506.41035,123.73216,458.30089,84.17981,418.33642Zm-67.967,165.05289c4.972,30.04477,14.89409,57.90673,35.41184,80.84782,13.66084,15.27433,30.569,25.46488,51.00628,28.15281,10.06059,1.32314,20.43908.22948,30.67374.22948q.13029-1.1764.26048-2.3528Q74.889,636.828,16.21276,583.38931Zm116.87208,95.47026C126.45892,645.268,62.54325,587.76071,28.84411,583.991,63.48447,615.51689,97.67285,646.63142,133.08484,678.85957Z"/><path d="M595.69017,334.74365l-.25928-16.76758q-.33984-21.92871-.665-43.85546c-.04-2.72657-.02685-5.4795-.0166-7.36719-5.21191-.48535-10.395-.82031-15.4248-1.14649-12.53076-.81054-24.3667-1.57714-35.90039-4.459-27.75489-6.93652-49.16944-25.28027-65.46778-56.08008-9.14746-17.28613-15.35937-36.34326-20.14209-61.79053l-.5664-3.01562,2.9873.69873A267.52749,267.52749,0,0,1,537.926,172.70752c23.17334,13.88965,41.81885,30.6626,56.82764,51.14941V201.64648q0-5.74218-.0376-11.48486c-.04639-9.38135-.09424-19.082.15234-28.63086.11328-4.373-1.31152-6.95068-5.44482-9.84961-25.45068-17.85156-42.23828-36.646-52.83106-59.147-12.37841-26.29492-14.17773-53.56934-5.34765-81.06592a56.40831,56.40831,0,0,1,2.33252-6.00488,14.3466,14.3466,0,0,1,1.521-2.43945c.28077-.39209.5918-.8252.93018-1.33106L537.16234,0l1.67139,1.16455c19.70507,13.72559,33.43212,28.9541,41.96582,46.55469,6.28027,12.95361,11.1997,26.5625,15.95751,39.72314,1.49512,4.13574,2.93116,8.10791,4.39258,12.02246.16407-.38427.332-.7749.50147-1.16455,9.97168-22.9458,33.9126-38.97119,58.22119-38.97119,1.07715,0,2.167.03125,3.2373.09326,2.24317.12989,3.8711,1.98291,5.44629,3.77491a21.44288,21.44288,0,0,0,1.68653,1.78906l1.31152,1.17187-3.0332,4.42237-.94239.08105c-1.20605.10352-2.41406.1875-3.62207.271-2.50488.17334-5.09375.353-7.57324.7207-29.41894,4.36182-46.49414,23.13086-49.37793,54.27783-.20752,2.24024-.20947,4.585-.21142,6.852-.01221,15.7378-.01123,31.39649-.00977,47.94483l.00049,10.10986q2.60816-2.97436,5.09424-5.83935c5.77441-6.63624,11.229-12.90479,16.98047-18.87647,22.23046-23.08105,53.2124-51.03076,95.82861-62.39209a109.19337,109.19337,0,0,1,70.14746,4.18262l1.999.78467-.92382,1.938c-18.47364,38.74854-43.585,67.31885-76.77051,87.34327-24.373,14.707-50.48145,21.85693-79.8169,21.85791a199.64574,199.64574,0,0,1-32.53857-2.79981v117.707ZM475.63841,164.499c14.28614,61.47364,57.73633,89.07764,95.39209,89.07764a83.75991,83.75991,0,0,0,14.67578-1.30273Zm24.09717,3.77344,83.38574,66.47022C563.33958,199.72119,531.1223,181.1001,499.73558,168.27246Zm120.95166,37.9458a129.45279,129.45279,0,0,0,20.61084,1.64942c52.76953,0,103.81445-31.59522,131.72559-81.01709Zm133.84424-94.13867c-50.76367,0-99.92578,39.63184-131.13184,79.10889L772.095,113.76807A91.40751,91.40751,0,0,0,754.53148,112.07959ZM541.84886,19.49805c-15.02344,37.46289,6.21192,89.3916,47.46338,116.082C593.34349,99.10547,576.77757,46.06836,541.84886,19.49805Z"/><path d="M597.65925,332.74345q-.451-29.32623-.89409-58.65253c-.0547-3.7689-.00785-7.53933-.00785-9.15314-18.54943-1.85464-36.25121-1.58266-52.84815-5.7304-29.95691-7.4865-50.00362-28.27546-64.18546-55.07521-9.90872-18.72457-15.71542-38.72657-19.94381-61.22434a265.1815,265.1815,0,0,1,77.11776,31.515c23.636,14.16686,43.7332,32.1142,59.85585,55.72411q0-14.25034,0-28.50063c.00038-13.35561-.23063-26.71725.11451-40.064.14017-5.42043-1.95651-8.49494-6.296-11.53863-21.90042-15.36091-40.57947-33.74128-52.17-58.36164-12.16266-25.83577-13.99438-52.38089-5.25278-79.60264a54.23134,54.23134,0,0,1,2.25009-5.79094,29.54954,29.54954,0,0,1,2.29122-3.48264c17.52893,12.20971,32.20578,27.00961,41.30913,45.78587,8.92406,18.40639,15.08334,38.15294,22.05819,56.27747.25522-.60809,1.31143-3.20316,2.42781-5.77209,10.13632-23.325,34.75876-39.11,59.50841-37.678,2.06253.11936,3.94789,3.3,5.91555,5.05835q-.75147,1.09581-1.50292,2.19167c-3.77367.32475-7.57676.45107-11.31634,1.00556-30.20487,4.47852-48.123,24.17071-51.077,56.07175-.21838,2.35832-.21787,4.74234-.21974,7.11447-.016,20.43034-.00921,40.86074-.00921,63.2679,9.27806-10.449,17.06879-19.8497,25.515-28.61934C657.156,139.625,686.85869,115.885,725.20373,105.66251c22.95368-6.11935,45.62406-5.02362,68.901,4.11208-17.39414,36.4863-41.76993,65.8377-75.99779,86.49138-34.87887,21.04636-72.731,25.57206-113.32279,18.39916V332.74345ZM777.87609,122.06762c-55.11512,28.71511-108.56335,56.56173-163.264,85.0609C677.94268,220.342,745.61672,184.74141,777.87609,122.06762Zm-236.8773-105.684c-17.59034,39.2277,5.32974,95.42652,49.899,122.55282C596.588,100.10554,578.36329,43.1759,540.99879,16.38359Zm49.29882,236.994c-39.26191-31.31-78.01976-62.21811-117.79138-93.93462C486.6961,231.12438,540.48448,264.84979,590.29761,253.37763ZM777.84793,113.0278C717.9904,97.44943,653.85109,146.26562,616.36326,197.107,670.9658,168.67746,723.45726,141.34707,777.84793,113.0278ZM488.218,161.64881l100.99937,80.511C568.70512,198.89523,530.76268,177.45394,488.218,161.64881Z"/><path d="M384.63815,543.2394a5.3305,5.3305,0,0,1-3.94043-1.50147c-1.75977-1.77148-1.9834-4.67969-1.96387-7.55859.10644-15.36377.08887-30.98877.07129-46.09961q-.01026-8.5503-.01367-17.09961V462.9015c-3.85938.04151-7.70215.19385-11.4375.3418-4.23536.16748-8.61426.34082-12.84961.34082a94.6434,94.6434,0,0,1-15.46387-1.08935c-26.08594-4.26514-47.97949-19.55762-65.07129-45.45313-15.7373-23.84277-25.51855-51.76465-31.71582-90.53515l-.459-2.86866,2.84375.59522c50.21289,10.51074,102.19433,47.436,134.15039,94.87793V394.31313c0-4.41163.02343-8.82373.0459-13.23633.0625-11.98975.12792-24.38721-.291-36.54444a14.46429,14.46429,0,0,0-4.61816-9.38086c-32.48438-26.65478-52.16993-55.90234-60.1836-89.41357a139.58515,139.58515,0,0,1,1.0332-68.73242,75.47845,75.47845,0,0,1,2.84375-8.17871c.55079-1.41358,1.13379-2.90918,1.72754-4.53809l.97559-2.67627,2.18555,1.82666c33.61523,28.08545,53.92968,65.34033,61.96289,113.71875,5.43359-13.01855,11.62793-23.57617,21.59961-31.89648,11.34668-9.46778,25.24511-14.14112,45.0664-15.15332l1.91309-.09766,1.09473,11.62647-1.98047.19629c-1.51856.15039-2.9541.26953-4.33106.38427-2.71289.22461-5.27441.4375-7.71582.84278-19.75293,3.27978-33.50781,13.85839-40.88379,31.44287-3.59082,8.55859-6.95508,17.69677-7.2666,26.53759-.69043,19.6167-.57226,39.13038-.44726,59.79053.0371,6.16162.07519,12.48242.09179,18.89356,1.209-1.66211,2.24805-3.09619,3.27246-4.53955,22.92774-32.29444,45.10352-55.3833,69.78711-72.66211,25.23828-17.666,47.97461-25.89405,71.55176-25.89405a100.51927,100.51927,0,0,1,16.62988,1.40528,147.1888,147.1888,0,0,1,17.31348,4.39258c2.80762.83251,5.71094,1.69287,8.7334,2.51025l2.20508.59619-.88184,2.10645c-17.90234,42.7788-42.0918,74.709-73.95117,97.61621-24.83985,17.85888-52.71387,26.91406-82.84863,26.91406a173.30926,173.30926,0,0,1-32.30274-3.17725v132.541l-1.26953.49805A14.66223,14.66223,0,0,1,384.63815,543.2394ZM258.73092,348.151c6.53223,27.78222,15.22461,48.31543,27.84961,65.9663,13.46387,18.82374,29.73633,30.50489,49.748,35.71094a84.62535,84.62535,0,0,0,21.53125,2.895h.002a79.65484,79.65484,0,0,0,14.292-1.30176Zm21.9834,3.6792,87.88086,80.01709C352.42037,397.05287,324.76608,371.86928,280.71432,351.83022ZM403.977,397.18568a123.65132,123.65132,0,0,0,23.73047,2.3628h.00488c21.93555,0,43.34278-6.35694,63.62793-18.89453,27.542-17.023,48.875-41.30957,65.06543-74.11621Zm133.1543-108.40234a83.47,83.47,0,0,0-21.92969,2.98486c-27.98144,7.62549-52.65625,24.12305-80.00683,53.49219-8.30762,8.9209-16.11426,18.63818-23.66309,28.03565-2.72754,3.396-5.5293,6.88378-8.35059,10.32812L557.729,291.73061A70.5321,70.5321,0,0,0,537.13131,288.78334ZM325.55123,183.28822c-13.0166,47.92432,6.40137,102.31153,47.90137,134.21289,3.45605-18.71728-.25879-45.94384-10.15918-73.73925C353.3774,215.92152,339.41451,193.6183,325.55123,183.28822Z"/><path d="M244.22842,326.19064c52.33383,10.95459,105.86832,50.8485,136.56008,99.65738q0-15.76742.00006-31.53484c.00057-16.61943.32563-33.25-.24584-49.84974A16.44283,16.44283,0,0,0,375.194,333.605c-28.70078-23.54991-50.69287-51.46952-59.50691-88.33227a137.05644,137.05644,0,0,1,1.02108-67.75765c1.02635-3.89527,2.72056-7.61463,4.51693-12.54153,38.05912,31.79946,55.86372,72.44464,62.376,119.79559,5.42165-14.28733,11.74741-27.95669,23.75009-37.97217,12.46141-10.39826,27.20976-13.84,43.88691-14.69138.24016,2.55284.46455,4.9388.72781,7.73706-4.59464.456-8.4236.62116-12.17647,1.24433-19.93536,3.31023-34.57921,13.99465-42.40122,32.64239-3.625,8.64205-7.098,18.06091-7.42106,27.24085-.96776,27.50029-.34817,55.05643-.34817,84.89578,3.02021-4.1678,4.98241-6.82809,6.89568-9.52309,19.52186-27.49817,41.49142-52.71388,69.30262-72.18114,25.98288-18.18749,54.13088-29.63593,86.70235-24.15525,8.3522,1.40537,16.4506,4.31837,25.85819,6.86111C561.83068,326.407,538.98892,359.268,505.10268,383.632c-34.69625,24.94645-73.41811,31.58713-115.983,22.92886v133.609c-7.44568,2.92091-8.42363-.49612-8.38555-5.977.14625-21.07.05825-42.14164.05767-63.21268-.00008-3.19017,0-6.38034,0-10.08973-14.44859,0-28.26023,1.78388-41.428-.36921C311.44234,455.95583,290.94376,439.129,275.638,415.94,257.84493,388.98269,249.42367,358.69305,244.22842,326.19064Zm154.35224,71.87761c33.80878,7.9499,64.98784,2.10194,93.81126-15.713,31.509-19.47486,53.24467-47.45935,68.65512-80.90506Q479.81385,349.75921,398.58066,398.06825ZM324.39712,180.04291c-15.788,52.89525,7.94525,109.90255,50.36419,140.9394C384.46915,280.41406,356.28554,200.82,324.39712,180.04291Zm-69.01049,162.3575c5.96511,27.64952,14.38377,51.65147,29.56743,72.88051,12.7971,17.89228,29.299,30.87086,50.87027,36.48277a82.92564,82.92564,0,0,0,40.58925.83136C335.70643,415.53132,296.4166,379.75805,255.38663,342.40041Zm307.08206-51.16062c-14.49385-5.52348-31.5755-5.82089-47.79264-1.40145-33.0022,8.99364-58.30886,29.75164-80.94552,54.05943-12.12637,13.02162-22.86942,27.33107-34.23675,41.05937l1.9725,2.01356C454.75555,355.28525,508.04486,323.5998,562.46869,291.23979Zm-188.39138,148.304c-19.2378-48.58508-57.79191-75.46052-103.58215-94.3138Q322.28625,392.38692,374.07731,439.54381Z"/></g></g></svg>