<svg xmlns="http://www.w3.org/2000/svg" viewBox="0 0 583.46388 618.40275"><defs><style>*{fill:#fff;stroke:#fff;}</style></defs><g id="Layer_2" data-name="Layer 2"><g id="Layer_1-2" data-name="Layer 1"><path d="M99.60164,45.35789c2.03318,0,3.6785,0,5.32382,0,20.705-.00007,41.41011-.03206,62.11484.045,2.28054.00848,3.2666-.41466,3.86016-2.94878,5.29285-22.59754,19.1-37.21544,42.04255-41.4927,30.00305-5.59359,55.23808,13.92171,60.94949,40.33386.87633,4.05265.8276,4.06271,5.0795,4.06263,21.09383-.00038,42.1879.04972,63.28116-.0613,2.783-.01464,3.66086.69715,3.59671,3.556-.18963,8.45312.048,16.9157-.13218,25.36924-.062,2.911.72792,3.82988,3.73665,3.81951,30.71692-.106,61.43445-.03,92.15144-.12591,2.774-.00866,3.57919.70529,3.57627,3.53561q-.11486,112.27877-.0236,224.5577c.00075,1.33768-.97479,3.51054,1.523,3.67776,2.29173.1534,4.86121,1.56008,6.61123-1.66307,5.32253-9.80269,10.92234-19.45461,16.27349-29.24214,1.07871-1.97306,1.91966-2.2457,4.02817-1.35576q20.38039,8.602,40.91714,16.83035c2.43833.97662,2.95344,1.98885,2.21523,4.50915-3.10911,10.61467-5.95245,21.3069-8.99652,31.94114-.45171,1.5781-.0529,2.3917,1.08729,3.47627,5.54883,5.27839,11.07064,10.59448,16.37109,16.11876,1.47564,1.53789,2.5106,2.13085,4.65606,1.50169,10.61587-3.11343,21.29909-5.99645,31.93186-9.05366,1.69589-.48758,2.58813-.35323,3.33168,1.44608,5.92835,14.34636,11.95377,28.6526,17.94278,42.97393.14571.34832.215.72867.41291,1.41825q-8.3163,4.729-16.632,9.45576c-4.97819,2.82318-9.92747,5.70065-14.96677,8.41047-1.5887.8543-1.75744,1.93054-1.732,3.53949.12427,7.84987.03264,15.70355.20732,23.55164a4.23153,4.23153,0,0,0,1.76933,3.04828c9.56976,5.54678,19.18136,11.02659,28.89694,16.3126,2.26809,1.23405,2.4546,2.31028,1.52472,4.52961q-8.49123,20.26676-16.70622,40.64851c-.97234,2.41331-2.12036,2.843-4.57806,2.121-10.42972-3.064-20.94072-5.85084-31.37905-8.88669-1.94454-.56555-2.92731.02428-4.21613,1.36994-5.16006,5.38782-10.34318,10.77109-15.82234,15.8259a4.46793,4.46793,0,0,0-1.49561,5.24749c2.99086,10.34962,5.89549,20.72437,8.93519,31.0595.58378,1.9849.49987,3.04849-1.7175,3.94986q-20.90546,8.49783-41.68012,17.31574c-1.794.75765-2.65449.6124-3.64772-1.17869-5.31545-9.58528-10.77517-19.09056-16.18115-28.62565-1.36086-2.40021-5.97608-3.77288-8.094-2.16371-.632.48014-.78994,1.87065-.79471,2.84585-.05293,10.79017-.03275,21.5807-.03257,32.37116.00025,15.16492-.06963,30.33047.06394,45.49422.02442,2.77291-.68357,3.57548-3.52174,3.573q-129.479-.11418-258.95818-.06273-89.23483-.00021-178.46965-.00029c-4.23661-.00007-4.23575-.00256-4.23575-4.23088Q.00024,347.99328,0,81.87771c0-3.8992-.00041-3.9017,3.979-3.90177,30.62007-.00056,61.24031-.046,91.85992.07138,3.05119.01169,3.74744-.92331,3.68642-3.80415-.18117-8.55076-.06911-17.1078-.05993-25.66237C99.46641,47.63367,99.54321,46.68661,99.60164,45.35789Zm-.13611,71.85848c0-7.61774-.129-14.795.06585-21.96349.07413-2.72657-.75265-3.3921-3.41441-3.38215q-39.21922.1466-78.43894-.01553c-3.02565-.015-3.67922.83232-3.678,3.74778q.10806,252.2431.06467,504.48625c0,4.11262.00212,4.11326,4.13579,4.11326q202.95133.00021,405.90269.00014a29.6113,29.6113,0,0,1,3.49639.02378c2.61287.31265,3.62231-.58534,3.53189-3.37056-.19537-6.0197-.05963-12.05007-.05956-18.07606.00014-15.261.01962-30.522-.04322-45.78269-.00423-1.0228-.33056-2.58245-1.023-2.9696-2.77744-1.55285-5.49981-.43828-7.13625,2.47828-5.2692,9.3909-10.64118,18.72537-15.79344,28.17972-1.18369,2.17208-2.26731,2.25243-4.33168,1.3903q-20.54918-8.582-41.195-16.93155c-1.96985-.79752-2.35442-1.75955-1.78378-3.75288,2.99221-10.45215,5.80646-20.95524,8.804-31.40582.617-2.151.21053-3.46555-1.46424-5.04453-5.356-5.04983-10.5875-10.24709-15.60726-15.62971a4.46037,4.46037,0,0,0-5.30124-1.42081c-10.52157,3.09178-21.09216,6.01659-31.63152,9.0486-1.40085.40307-2.26215.445-2.93952-1.205q-8.73074-21.26739-17.66164-42.452c-.80106-1.89718-.32431-2.73628,1.349-3.66509,9.50135-5.274,18.91106-10.714,28.44274-15.93161,2.19273-1.2003,2.85821-2.47917,2.76363-5.02356-.27315-7.34513-.196-14.709-.03589-22.06063.04176-1.91857-.36673-2.96849-2.10035-3.91788-9.53239-5.22011-18.93954-10.67052-28.50694-15.82406-2.405-1.29546-2.82662-2.37354-1.75539-4.90231,5.79-13.66774,11.42115-27.40338,17.00066-41.15877.6972-1.71889,1.32876-2.16219,3.17779-1.63288,10.73131,3.07227,21.52008,5.9439,32.247,9.03087,2.013.57929,3.04275.04625,4.42943-1.4108q7.81356-8.20989,16.032-16.03c1.44456-1.3808,2.00185-2.4147,1.40024-4.46446-3.143-10.70779-6.04034-21.48757-9.1632-32.20149-.55092-1.89005-.03193-2.52468,1.64035-3.20748,9.97406-4.07232,19.89836-8.26636,29.84664-12.4021,4.72658-1.96494,9.4692-3.89126,14.27228-5.86285.80884,1.30509,1.50636,2.34718,2.12132,3.43589,5.29637,9.37689,10.64634,18.72466,15.82584,28.16587,1.75982,3.2078,4.42306,1.6359,6.672,1.53145,2.151-.09993,1.42473-2.19312,1.42523-3.51375q.03963-105.41721.07711-210.83438c.00253-2.6221-.60351-3.53842-3.37105-3.52849q-39.51086.14171-79.02245.01941c-2.18188-.00473-3.09256.432-3.01556,2.89607.19419,6.215.06682,12.44006.06532,18.66108-.00089,3.76452-.00335,3.76616-3.871,3.76617q-119.40887.00042-238.81774.00008ZM556.12666,483.86223c2.75672-6.67032,5.25175-13.18678,8.15454-19.51624,1.32986-2.89978.62863-4.15964-2.0099-5.585-8.79048-4.74877-17.43286-9.771-26.167-14.62554a2.31873,2.31873,0,0,1-1.38778-2.99477,92.59235,92.59235,0,0,0-.01121-38.169c-.42352-2.11964-.08088-3.28808,1.94934-4.39586,8.85858-4.83377,17.56981-9.93736,26.42319-14.781,2.11787-1.15864,2.35044-2.08546,1.335-4.27748-2.69019-5.80716-5.146-11.7333-7.42609-17.71461-.84476-2.216-1.804-2.40057-3.8795-1.793-9.689,2.83606-19.42454,5.51317-29.15155,8.2179-1.44381.40154-2.72525.96363-3.95351-.95245-7.02386-10.95728-16.42767-19.60417-27.02937-26.99394-1.72938-1.20546-2.06952-2.35-1.50233-4.33049,2.83084-9.88376,5.4823-19.81881,8.295-29.70787.47883-1.68343.07233-2.52132-1.48546-3.15123-6.387-2.58269-12.76539-5.18828-19.1086-7.87607-1.50746-.63876-2.25137-.25433-3.00574,1.105-4.94009,8.90236-10.02051,17.72775-14.87328,26.67692-1.1225,2.07-2.26312,2.7031-4.55862,2.21456-12.43154-2.64592-24.89541-2.17379-37.2932.18957-2.46645.4701-3.42687-.3674-4.49027-2.29387-4.8747-8.83105-9.90988-17.57339-14.80448-26.3936-.86344-1.55589-1.63223-2.058-3.41262-1.2885-6.14718,2.657-12.35544,5.1744-18.56637,7.68077-1.7528.70734-2.30551,1.64242-1.74244,3.57612,2.82119,9.6882,5.43555,19.43714,8.31039,29.10893.67378,2.26674.278,3.39534-1.73443,4.70472-10.66016,6.93608-19.01192,16.23613-26.25353,26.562-1.15518,1.64716-2.05077,2.118-3.98979,1.56371-9.70294-2.77355-19.46576-5.33812-29.16415-8.127-2.34071-.6731-3.49037-.25867-4.38753,2.11444-2.26343,5.98737-4.66787,11.93085-7.2985,17.76442-.84059,1.864-.7381,2.579,1.06835,3.56658,8.68553,4.7482,17.238,9.74118,25.95333,14.43248,2.505,1.3484,3.33342,2.7629,2.81033,5.63236-2.24133,12.29582-2.59293,24.64247.14243,36.91828.53668,2.40847-.60222,3.30414-2.31277,4.25908-8.55421,4.77557-17.0494,9.65865-25.65366,14.34166-2.29376,1.2484-2.69656,2.50541-1.64131,4.84232,2.59336,5.74315,5.04251,11.55494,7.39608,17.401.76234,1.89369,1.531,2.49249,3.67029,1.86083,9.39587-2.77415,18.88564-5.23164,28.26873-8.04624,2.83949-.85174,4.33524-.40495,6.12781,2.14278,7.13535,10.14115,15.39577,19.26138,26.06347,25.86933,1.677,1.03878,1.79136,2.13161,1.3101,3.82971-2.67342,9.43262-5.234,18.89718-7.89026,28.33475-1.07864,3.83227-1.14624,3.81881,2.41793,5.28783,5.56036,2.29173,11.18662,4.438,16.65774,6.92568,2.46809,1.12223,3.5211.48331,4.72817-1.73355,4.82433-8.86,9.83936-17.61611,14.77077-26.41793.69445-1.23954,1.2719-2.14485,3.12242-1.73032,12.79469,2.86632,25.63878,2.56589,38.44564.07907,1.942-.37712,2.91713-.13219,3.92186,1.69664,4.90375,8.9256,10.03045,17.72849,14.95965,26.64039,1.07159,1.93737,2.07387,2.32784,4.13891,1.41312q8.91361-3.94844,18.008-7.4824c1.97231-.76626,2.4001-1.53744,1.78008-3.61938-2.54573-8.54849-4.88331-17.15928-7.27188-25.7543-1.65665-5.96117-1.63775-5.96616,3.38761-9.77414.15471-.11724.29023-.26028.4474-.3737,9.42249-6.79813,16.66361-15.67066,23.513-24.8906.968-1.303,1.7224-1.77521,3.33-1.27973,4.26254,1.31362,8.57863,2.45414,12.87666,3.65181C542.97207,480.21345,549.493,482.02,556.12666,483.86223ZM260.88006,59.73565c0-2.4589.124-4.5745-.0293-6.66979a53.22211,53.22211,0,0,0-1.04749-9.19912c-3.86344-15.19893-13.57091-24.96769-28.714-28.60347C216.18,11.68361,203.43611,16.3407,193.34717,27.7518c-7.10984,8.0416-9.88251,17.70814-9.0203,28.35666.24549,3.03209-.78966,3.715-3.72475,3.697-21.28-.13028-42.56134-.03127-63.84176-.12171-2.57237-.01094-3.33772.78137-3.3149,3.32736q.16587,18.51077-.0078,37.02348c-.02506,2.47144.73245,3.143,3.13191,3.14126q106.1122-.077,212.22439.01137c2.54715.00237,3.049-.90053,3.0314-3.20846q-.14145-18.51115.008-37.02367c.02435-2.57746-.7752-3.28594-3.32644-3.27447-21.28037.09567-42.56134.0547-63.84213.055C263.52691,59.73566,262.389,59.73565,260.88006,59.73565Z"/><path d="M389.44677,193.7752c0,4.38235.03663,8.63244-.057,12.87968-.00929.42115-.75231,1.036-1.26439,1.18563a8.502,8.502,0,0,1-2.31754.07539q-117.96105.00162-235.922.00055c-3.76769,0-3.76793-.00285-3.76831-3.76507-.00034-3.384-.00007-6.768-.00007-10.37618Z"/><path d="M146.27223,296.1552l3.25208,0q71.40657-.00007,142.813-.05975c2.76738-.00483,3.78169.66234,3.57026,3.52589-.24884,3.36982-.05833,6.7721-.05833,10.44951h-149.577Z"/><path d="M146.117,503.20723h3.42971q60.77356-.00021,121.547-.07088c3.03569-.0079,3.91663.88029,3.66267,3.7861a69.6419,69.6419,0,0,0-.02652,8.44774c.05752,1.66143-.602,2.32844-2.20881,2.21594-.58008-.04065-1.16545-.00541-1.74841-.00541q-60.33638,0-120.67275-.00036c-3.98452,0-3.984-.00124-3.983-4.13928C146.11761,510.16072,146.117,506.8804,146.117,503.20723Z"/><path d="M70.39879,537.37606Q56.13,523.10884,42.13405,509.11446c3.121-2.96226,6.463-6.13436,9.98088-9.47342,5.56316,5.66448,11.51495,11.72468,17.64217,17.96346,18.32982-18.40622,36.19172-36.34262,54.37271-54.59943,3.2665,3.3516,6.22157,6.28335,9.014,9.36253.39488.4355.03954,1.59493-.06064,2.4079-.02812.22816-.38454.416-.59061.62208Q101.8818,506.0124,71.26779,536.624C70.93864,536.95313,70.56266,537.23534,70.39879,537.37606Z"/><path d="M42.01575,403.956c2.49458-2.41855,5.38713-5.14293,8.18031-7.96564,1.34135-1.35552,2.13421-.55583,3.10215.42036q7.181,7.24207,14.41534,14.43106c.68168.68067,1.39066,1.334,2.02115,1.937,18.02716-18.03612,35.9675-35.9853,54.34162-54.36852,3.425,3.577,6.29474,6.57584,9.16661,9.57274,1.39176,1.45235.06517,2.2367-.7877,3.09225q-8.94752,8.97571-17.9186,17.92789-21.01207,21.01432-42.00929,42.04337A14.13369,14.13369,0,0,0,71.0255,433.099C61.21576,423.24418,51.80815,413.79336,42.01575,403.956Z"/><path d="M70.7945,310.55486c17.80556-17.85312,35.61111-35.70625,53.69047-53.83392,2.915,2.952,5.89472,5.8527,8.68238,8.92755.385.42464.12976,1.97922-.36276,2.55051-1.70773,1.98079-3.65037,3.75906-5.50458,5.61344q-27.50365,27.50622-54.99748,55.02222a13.76871,13.76871,0,0,0-1.32193,1.6976c-9.70651-9.7065-19.1302-19.13022-28.91584-28.91586,2.56237-2.51951,5.60238-5.61052,8.81272-8.51314.33383-.30182,1.91739.26859,2.51627.85076q7.20636,7.00552,14.22105,14.20686a13.49365,13.49365,0,0,1,1.65223,2.78323Q70.03076,310.74952,70.7945,310.55486Z"/><path d="M52.23929,190.10354c5.85951,5.95631,11.76672,11.9611,17.90923,18.2051,18.02159-18.10673,35.92619-36.09591,54.21673-54.47283,3.21422,3.298,6.18748,6.19588,8.90222,9.3185.35883.41275-.30684,2.261-.99286,2.95585q-15.75248,15.95464-31.65106,31.765-14.1028,14.10678-28.21767,28.20146c-.67653.67573-1.385,1.31952-1.88141,1.79091L42.5636,199.82891Z"/><path d="M146.27935,413.0261V399.02539h96.53416c0,4.27168.048,8.49673-.06693,12.71736-.0129.47377-.89167,1.02735-1.47684,1.34505-.37635.20424-.95031.04749-1.4357.04749q-45.73585.00065-91.47168-.00338C147.78867,413.13184,147.215,413.0753,146.27935,413.0261Z"/><path d="M512.43,421.64213c-.00035,41.57569-32.80517,74.49207-74.35718,74.34091-41.23525-.15-73.97545-32.651-74.00151-74.16216-.02616-41.68118,33.34015-75.154,75.99358-74.222A73.83777,73.83777,0,0,1,512.43,421.64213ZM438.5999,481.70005c32.353.371,59.72864-26.77639,59.75177-59.98569.02268-32.55546-27.43405-60.19757-59.61824-60.01537-33.41544.18914-60.18308,26.74922-60.48318,59.43865C377.94179,454.73444,405.941,482.38475,438.5999,481.70005Z"/><path d="M215.29129,61.54838c0-4.54532-.071-8.61525.07967-12.677a2.41462,2.41462,0,0,1,1.714-1.60953c3.68326-.15379,7.37949-.15662,11.06231.00131a2.42745,2.42745,0,0,1,1.63013,1.71231c.15806,3.5858.15758,7.18537.0057,10.7716a2.40857,2.40857,0,0,1-1.58937,1.72141C224.04445,61.61745,219.88738,61.54838,215.29129,61.54838Z"/></g></g></svg>