<svg id="Layer_1" data-name="Layer 1" xmlns="http://www.w3.org/2000/svg" viewBox="0 0 100.02793 137.62134"><defs><style>.cls-1{fill:#c55b12;}</style></defs><path class="cls-1" d="M1073.06612,689.56524c-.46042-.54864-1.15447-.44833-1.74472-.5858a32.34947,32.34947,0,0,1-20.18552-13.68926c-1.105-1.63184-2.8075-2.12638-4.384-2.91462-.60387-.30192-.77379.05442-.74527.6157a33.73005,33.73005,0,0,0,3.25588,13.512,1.73638,1.73638,0,0,0,.81115.98336.41332.41332,0,0,1,.07574.63239c-.19727.2758-.3313.14459-.55857-.02736-5.77977-4.3726-10.65118-9.48107-13.32-16.3792a24.24405,24.24405,0,0,1-1.541-6.37739,1.74458,1.74458,0,0,0-1.356-1.59816c-.89024-.326-1.11529.47243-1.42864.949a25.999,25.999,0,0,0-2.53152,6.30546c-.2112.63443-.44612,1.261-.74773,2.10926a27.40019,27.40019,0,0,1-2.87867-9.20141,28.03676,28.03676,0,0,1-.19857-3.94736,2.277,2.277,0,0,0-.31653-1.49509c-.293-.384-.57692-.83942-1.11327-.79129-.49879.04475-.45608.58749-.608.93156-3.04836,6.9025-3.729,14.14229-3.01952,21.56775a17.5095,17.5095,0,0,0,.59462,2.68288,4.8387,4.8387,0,0,1,.00717,2.3175,21.41887,21.41887,0,0,1-3.23491-4.72374c-4.53852-8.30191-5.50554-17.181-4.50228-26.46694.52152-4.82711,2.17221-9.28576,3.583-13.84753,1.29676-4.19316,1.97589-8.54036,3.08951-13.10115-4.64076,3.79536-7.62192,8.61932-11.15311,13.22455a6.61315,6.61315,0,0,1-.03064-3.4906,24.3223,24.3223,0,0,0,.54718-3.56725,9.59468,9.59468,0,0,0-3.048,2.85749,73.31132,73.31132,0,0,0-11.06222,21.47824,64.08056,64.08056,0,0,0-3.57009,20.30966,45.18853,45.18853,0,0,0,.54885,7.1617,1.51687,1.51687,0,0,1-.47041,1.68057,39.7711,39.7711,0,0,1-2.68126-8.56318,56.15707,56.15707,0,0,1-1.16825-11.54151,98.29639,98.29639,0,0,1,1.03566-13.00934c1.595-11.38758,6.02576-21.68638,12.1067-31.31712a46.62349,46.62349,0,0,1,10.38057-11.00339c.72616-.59055.71073-.9076.102-1.55466a66.98353,66.98353,0,0,1-13.04709-19.1916,58.69529,58.69529,0,0,1-5.26162-22.33528,90.58422,90.58422,0,0,1,1.23216-16.2202c.83257,1.13518,1.5082,2.08074,2.20864,3.00757,5.59647,7.40537,12.28727,13.48214,20.92542,17.18137a21.34914,21.34914,0,0,0,9.98649,2.05664c1.09558-.07619,1.28719-.39574,1.04675-1.4553a19.44939,19.44939,0,0,0-6.21716-9.99253c-.35018-.32541-.73818-.61585-1.05363-.97132-.31988-.36046-.404-.70855.26208-.806a24.80933,24.80933,0,0,1,8.9091.37963c1.04813.22656,2.13963.24827,3.1923.45868a26.95879,26.95879,0,0,1,15.27119,9.21305c.48612.55715,1.00182,1.08849,1.63486,1.77364a7.96294,7.96294,0,0,0-.85273-4.104c-.33708-.80823-.67411-1.61653-1.0031-2.42806-.29945-.73866-.09538-1.0962.73037-.87434a27.40681,27.40681,0,0,1,12.04,6.35412,26.84835,26.84835,0,0,1,7.64883,14.32185c.06779.31123.15857.61745.25815,1.00112a2.3653,2.3653,0,0,0,1.19066-1.67244,8.07492,8.07492,0,0,0-.27763-5.39607c-.219-.58231-.62482-1.35618-.16573-1.773.4374-.39715,1.10488.17254,1.63051.4369,5.10965,2.5698,7.83019,6.8752,8.826,12.35937.426,2.34626.63975,4.73107.96718,7.23,1.92159-1.20256,2.43625-3.32341,3.83263-4.97987,2.54455,5.14463,3.43661,10.3078,1.24655,15.66165-2.1547,5.26741-6.49931,8.42566-11.40114,11.13014a28.84409,28.84409,0,0,1,7.96707,5.92139c2.43635,2.67262,4.42119,5.57338,4.41459,9.39819-.00293,1.7034-.43074,2.09572-2.07627,1.7805-1.19228-.22839-2.33474-.74394-3.45863.30237-.41253.38405-1.0652.02332-1.60026-.1512-3.854-1.257-7.62252-1.28518-11.175.93141-1.42731.89059-2.768,1.88619-3.15605,3.71473a1.89529,1.89529,0,0,0,.53279,1.93775,29.22474,29.22474,0,0,1,5.39631,6.97139,19.50619,19.50619,0,0,1,.72625,16.67931c-1.18282,3.04917-3.71721,4.90863-6.7084,6.12271a13.96661,13.96661,0,0,1-1.90777.702c-1.00624.245-1.08846.83617-.65022,1.58426,1.85127,3.16018,3.67684,6.33077,6.46411,8.82185,1.87576,1.67642,3.80521,3.27815,5.8112,4.79192Zm-9.979-85.52294a18.43136,18.43136,0,0,1,5.23062,12.99c-.01489,1.08084.28718,1.26992,1.19453.89307,5.1134-2.12371,9.57294-5.095,12.5169-9.92746a10.23933,10.23933,0,0,0,1.60368-5.5182c-.47906.22316-.83507.38714-1.18951.55444a19.18245,19.18245,0,0,1-4.742,1.60983c-.70778.12911-1.0594.10224-.9321-.86766a43.52383,43.52383,0,0,0,.57745-7.15884,16.28025,16.28025,0,0,0-1.88746-7.70789c-.13644-.23875-.21338-.59674-.53818-.5405-.16263.02816-.29326.33662-.40652.53637-.33407.58919-.62637,1.20334-.98114,1.7793a18.24543,18.24543,0,0,1-6.11648,6.11648c-1.31555.80021-1.67338.6173-1.7731-.85427-.07017-1.03579-.13724-2.07271-.24662-3.10478a31.93793,31.93793,0,0,0-9.27375-19.97722c-.18817-.18676-.33-.59406-.77708-.40258a18.30586,18.30586,0,0,1-.50357,4.98635,13.37861,13.37861,0,0,1-3.36347,6.10242c-.455.46506-.7347.5976-1.02583-.2293a25.06982,25.06982,0,0,0-4.2791-7.00367c-3.22279-4.108-6.92617-7.60894-11.92632-9.48156a7.15374,7.15374,0,0,0-3.57276-.59132c.34216.68811.6455,1.28512.93751,1.88762,1.36877,2.82413,2.435,5.71542,2.1927,8.94409a1.356,1.356,0,0,1-1.38084,1.44635,28.18763,28.18763,0,0,1-9.36078-.88311,54.138,54.138,0,0,1-21.47681-10.35525c-1.36342-1.03725-2.74327-2.05291-4.28584-3.20579a68.944,68.944,0,0,0,7.864,22.23352,52.0635,52.0635,0,0,0,15.55358,17.29343,1.20163,1.20163,0,0,0-.54158-1.14772c-2.21112-2.40752-4.34348-4.8797-6.31178-7.49168a50.94847,50.94847,0,0,1-8.19927-14.62753,13.6994,13.6994,0,0,1-.7925-4.47573,4.53448,4.53448,0,0,1,.91934,1.4467,30.699,30.699,0,0,0,3.47575,6.51333,50.12772,50.12772,0,0,0,18.54774,16.87842c2.01487,1.06417,3.72866.64333,5.54921-.15981a2.1908,2.1908,0,0,0,1.37071-2.04785,71.07735,71.07735,0,0,0-.22863-9.68909,21.96887,21.96887,0,0,1-.229-4.54936,23.63477,23.63477,0,0,1,2.8182,3.17657,31.36726,31.36726,0,0,1,5.48153,12.8727,1.1508,1.1508,0,0,0,1.235,1.08664,26.95542,26.95542,0,0,1,6.19546,1.27073c1.56329.51982,1.80981.49613,1.845-1.17841a19.31209,19.31209,0,0,0-1.76769-8.73961,4.926,4.926,0,0,1,2.82064,2.02016,18.76936,18.76936,0,0,1,3.91179,12.4066,2.93742,2.93742,0,0,0,.52864,1.76388c.617.92842,1.1664,1.90142,1.75732,2.8475.81074,1.298,1.63369,2.58834,2.51861,3.98829C1063.66381,611.94065,1063.37091,608.01113,1063.08711,604.0423Zm-11.51891,55.9751c.54527.82469.93181,1.47351,1.38021,2.07631,1.916,2.57589,4.10982,4.77292,7.4165,5.4902a6.04785,6.04785,0,0,0,7.65893-4.795,14.93393,14.93393,0,0,0-9.15336-17.47773c-2.79905-1.12143-3.00569-1.3333-2.476-4.85931.04109-.27355.1779-.53148.23527-.804.275-1.30634.83745-2.57984.50369-3.99893-4.8997,1.43444-9.77452,2.93239-14.26967-1.00242,3.18-.4469,6.30351-.94472,9.33172-2.71128-1.33374-.47512-2.70832.1794-3.577-1.02305.88956-.54127,1.77148-1.01357,2.58262-1.58614a18.74314,18.74314,0,0,0,3.82335-2.84708,1.00071,1.00071,0,0,0,.06683-1.40317c-.36007-.47823-.74324-.30937-1.16478-.11645a9.7597,9.7597,0,0,1-1.11813.42212,6.0034,6.0034,0,0,1-8.08342-5.81224,12.43633,12.43633,0,0,1,.01647-1.79715c.11267-.85754-.10342-1.32082-1.04907-1.44511a20.14381,20.14381,0,0,1-2.43014-.62883c-.26284-.069-.60662-.05-.545-.46473a.6753.6753,0,0,1,.48618-.62335c.58041-.13983,1.16318-.27464,1.75075-.37905a19.60312,19.60312,0,0,1,8.531.62273c.304.08037.65276.26136.904-.00608.16785-.17864-.00047-.43251-.12844-.64938a6.56871,6.56871,0,0,0-7.84344-3.01739,26.15677,26.15677,0,0,0-10.12467,6.61149,27.038,27.038,0,0,0-6.38722,8.71957c-.08467.20179-.359.42344-.08427.6177.26387.18653.51811.05447.69866-.22038a4.64773,4.64773,0,0,1,.50948-.6654c.9108-.95286,1.64254-2.11553,2.94323-2.64613.16429.2739.017.44517-.0259.63138-.47788,2.073-1.79791,3.7859-2.38532,5.84133-1.27123,4.4482-2.23265,8.87115-1.62874,13.55888.69289,5.3784,3.98292,9.60422,8.91775,11.06888,2.158.64049,3.41289.11966,4.42185-1.88844a11.83161,11.83161,0,0,0,.62114-1.67761c.59829-1.84667-.10221-3.53314-.66843-5.23442-.09674-.29068-.36369-.61952-.109-.88158.29871-.30735.68274-.09443.99313.0769a8.98543,8.98543,0,0,1,1.42.87791c.726.602,1.23838.6621,1.75612-.27509a15.22376,15.22376,0,0,1,1.595-2.23724,6.362,6.362,0,0,1,3.89791-2.53062,93.899,93.899,0,0,0-2.957,9.08133,19.7606,19.7606,0,0,0,.30281,12.12553,10.13371,10.13371,0,0,0,4.19824,5.24277C1051.54027,664.8658,1050.87449,662.61041,1051.5682,660.0174Zm32.54837-26.576c-2.93944-7.12559-10.33913-12.45532-14.796-10.83712.86083.98073,2.19587,1.48533,2.7944,2.857a20.38776,20.38776,0,0,0-6.22808-.24543c-1.89.2803-2.70828,1.43052-2.305,3.26988.14446.65889.31385.86036,1.10152.68147a22.92681,22.92681,0,0,1,12.16192.38758A25.05451,25.05451,0,0,1,1084.11657,633.44142Zm-78.30245-8.84524c7.88523-7.80761,16.50375-14.44061,27.87311-17.18081C1025.33886,606.41636,1011.25834,615.71321,1005.81412,624.59618Zm73.88638,9.52468.08548-.31507a14.4336,14.4336,0,0,0-4.69883-2.14563,12.7136,12.7136,0,0,0-9.98091.70494c-1.06806.57286-.74976,1.39823-.39782,2.14446.3362.71282.73888,1.38893,1.83192.87319a21.34014,21.34014,0,0,1,10.51591-1.65794C1077.94228,633.7746,1078.81932,633.98454,1079.7005,634.12086Zm-31.29406-14.66395c-.00742,1.65675.61514,2.50052,1.94992,2.42.7004-.04226,1.8301.34517,1.832-1.03017.00242-1.743-.68461-2.60324-2.097-2.55749C1049.31218,618.31451,1048.27006,618.10652,1048.40644,619.45691Z" transform="translate(-987.9794 -551.9439)"/></svg>